/* XPM */
static char *_214d633afc64db7eec5750fc0e34f25cYKbmiTrNKkmBsnx[] = {
/* columns rows colors chars-per-pixel */
"64 64 228 2 ",
"   c #2BA7B6",
".  c #2CAAB6",
"X  c #2EAEBA",
"o  c #33AAB7",
"O  c #33ADBB",
"+  c #3BAEBB",
"@  c #39A9B7",
"#  c #2CB4BD",
"$  c #2BB5BF",
"%  c #33B4BC",
"&  c #3CB3BC",
"*  c #34B9BE",
"=  c #3BBABE",
"-  c #3FBCB4",
";  c #5CBEAA",
":  c #45AEB8",
">  c #4BAEB8",
",  c #56AFB8",
"<  c #4CBDB4",
"1  c #43B3BB",
"2  c #4BB4BA",
"3  c #43BBBD",
"4  c #4CBCBD",
"5  c #43B0B7",
"6  c #54BDB3",
"7  c #5EBFB3",
"8  c #54B3BA",
"9  c #5BB4BA",
"0  c #54BCBD",
"q  c #5CBCBC",
"w  c #50B2B7",
"e  c #63BFA5",
"r  c #61BEAC",
"t  c #61B7B7",
"y  c #6CB9B6",
"u  c #64B4BA",
"i  c #6BB5B9",
"p  c #63BDBC",
"a  c #6BBDBA",
"s  c #6BB7B7",
"d  c #7CB7B7",
"f  c #72BBB7",
"g  c #7BBAB7",
"h  c #73B5B9",
"j  c #7AB6B8",
"k  c #73BAB9",
"l  c #7BBBBA",
"z  c #76B7B6",
"x  c #74C58E",
"c  c #7AC48E",
"v  c #76C987",
"b  c #6CC495",
"n  c #66C49D",
"m  c #6BC39C",
"M  c #65CA9C",
"N  c #6AC999",
"B  c #67C793",
"V  c #73C394",
"C  c #73C29A",
"Z  c #7BC69A",
"A  c #7BC698",
"S  c #5DC3A4",
"D  c #55C4AD",
"F  c #5BC3A9",
"G  c #5AC8A8",
"H  c #45C3BE",
"J  c #4BC2B8",
"K  c #56C1BE",
"L  c #5CC1BD",
"P  c #52C6B1",
"I  c #63C3A2",
"U  c #6DC1A3",
"Y  c #67C0AB",
"T  c #6BC2AC",
"R  c #74C4A4",
"E  c #79C5A2",
"W  c #7AC7AA",
"Q  c #79C7A8",
"!  c #66C1B4",
"~  c #6CC2B4",
"^  c #64C2BC",
"/  c #6CC2BB",
"(  c #71C5B5",
")  c #73C2BB",
"_  c #7BC4BB",
"`  c #2EB6C0",
"'  c #2EB9C1",
"]  c #33B7C0",
"[  c #3CB5C4",
"{  c #33BBC1",
"}  c #3BBBC4",
"|  c #36B7CF",
" . c #3BB6CD",
".. c #35BBCD",
"X. c #3CBAC9",
"o. c #2DBBD5",
"O. c #3BB6D1",
"+. c #34B9D1",
"@. c #3DBAD3",
"#. c #37B7D7",
"$. c #43BCC4",
"%. c #4BBDC3",
"&. c #43BBCC",
"*. c #4ABCCE",
"=. c #40B7CA",
"-. c #52BDC2",
";. c #5ABDC3",
":. c #52BFCF",
">. c #5BBCCB",
",. c #44BBD2",
"<. c #4CBED2",
"1. c #4CBEDA",
"2. c #46BCDD",
"3. c #52BFD3",
"4. c #51BFDB",
"5. c #5DBFD2",
"6. c #62BEC2",
"7. c #6DBEC2",
"8. c #61BCCB",
"9. c #74BEC3",
"0. c #7ABEC3",
"q. c #65BFD2",
"w. c #36C1C5",
"e. c #3BC3C6",
"r. c #35C2CC",
"t. c #3DC4C9",
"y. c #3FC9CE",
"u. c #3CC4D3",
"i. c #43C2C5",
"p. c #4CC3C5",
"a. c #41C3CB",
"s. c #43CACE",
"d. c #4BC7CD",
"f. c #54C3C4",
"g. c #5BC3C4",
"h. c #59C1CD",
"j. c #57C3C9",
"k. c #43C4D2",
"l. c #4DC1D3",
"z. c #43CBD4",
"x. c #46CCD9",
"c. c #4DCCDB",
"v. c #4CC4D8",
"b. c #55C2D5",
"n. c #5AC2D6",
"m. c #54C1D9",
"M. c #5DC4D9",
"N. c #53CDDD",
"B. c #5ECADD",
"V. c #4DD2DE",
"C. c #44D3D7",
"Z. c #52D1DF",
"A. c #5DD1DE",
"S. c #63C3C3",
"D. c #6AC3C4",
"F. c #6AC3CD",
"G. c #69CBCB",
"H. c #66C8C9",
"J. c #7CC1C2",
"K. c #72C5CC",
"L. c #7DC9CF",
"P. c #76C7C4",
"I. c #6ED5CE",
"U. c #63C3D5",
"Y. c #6BC4D4",
"T. c #61C6DA",
"R. c #63C9DD",
"E. c #6EC9D6",
"W. c #73C6D4",
"Q. c #7AC7D2",
"!. c #74C9D4",
"~. c #7CCAD2",
"^. c #79CAD9",
"/. c #68D3D8",
"(. c #77D5DC",
"). c #5FCCE1",
"_. c #4FD4E0",
"`. c #55D2E1",
"'. c #5CD4E3",
"]. c #5DD8E6",
"[. c #63CDE1",
"{. c #68CEE1",
"}. c #63D3E3",
"|. c #65D9E7",
" X c #81B6B7",
".X c #85B8B7",
"XX c #8BBAB7",
"oX c #84B7B8",
"OX c #8BB6B8",
"+X c #83BBBA",
"@X c #8CBBB9",
"#X c #8CB6B7",
"$X c #93BBB7",
"%X c #9BBCB7",
"&X c #95B7B9",
"*X c #94BCB9",
"=X c #9ABDB9",
"-X c #97B7B7",
";X c #A5BEB7",
":X c #A2BDB8",
">X c #A9BFB7",
",X c #86C99A",
"<X c #81C8A0",
"1X c #8BC6B7",
"2X c #83C4BB",
"3X c #8BC1BB",
"4X c #8BC8B9",
"5X c #82C5B8",
"6X c #93C5B7",
"7X c #94C1BD",
"8X c #9CC1BC",
"9X c #9AC3B7",
"0X c #A4C1B6",
"qX c #ACC2B7",
"wX c #A2C1B9",
"eX c #ABC1B9",
"rX c #B3C3B8",
"tX c #B1C4B7",
"yX c #82BFC3",
"uX c #84C2C3",
"iX c #8CC4C3",
"pX c #92C4C2",
"aX c #82CCD2",
"sX c #88CCD3",
"dX c #9BD4D4",
"fX c #91D6D0",
"gX c #ADD9D5",
"hX c #C7E3D7",
/* pixels */
"T.T.T.T.T.T.T.T.[.T.T.T.T.T.T.T.T.T.T.R.T.T.T.T.T.T.T.T.M.T.T.T.T.M.M.T.T.).M.M.B.M.T.M.T.T.T.T.M.T.M.T.R.M.T.T.M.T.M.M.T.M.T.M.",
"T.T.T.R.T.T.T.T.q.[.[.[.[.T.T.T.T.T.T.T.).T.T.R.T.T.T.T.T.T.T.T.T.T.T.T.T.T.T.M.U.M.T.T.M.T.T.M.T.T.T.T.M.M.M.T.T.M.T.M.M.T.M.T.",
"T.T.T.[.R.R.T.R.[.T.[.q.[.T.T.T.[.M.T.T.M.T.T.T.T.R.T.T.[.M.[.T.T.T.[.T.T.T.T.T.T.R.T.R.R.R.M.T.T.R.T.T.B.U.M.B.T.T.T.T.T.M.T.T.",
"R.R.T.T.T.R.R.R.[.[.T.[.[.{.T.T.q.[.T.).T.T.T.T.R.M.R.T.q.[.q.T.T.T.q.[.[.T.T.T.T.T.T.R.T.T.R.T.M.M.R.M.U.M.R.U.M.T.M.T.T.T.T.M.",
"R.T.R.R.T.R.R.R.{.R.R.T.[.{.T.T.q.[.q.q.[.q.[.5.T.R.T.T.T.T.T.T.).q.[.q.T.T.T.T.T.T.T.U.T.T.T.T.R.T.T.T.T.T.M.R.T.R.U.T.T.T.T.M.",
"R.R.T.R.R.T.R.{.{.{.{.{.[.R.R.Y.[.[.[.[.q.[.T.[.T.R.R.R.T.[.T.[.[.[.T.[.T.T.T.T.T.T.T.T.T.T.T.T.T.T.T.T.T.T.B.^.^.n.T.T.M.T.T.T.",
"T.T.T.R.Y.T.R.R.{.R.R.{.{.{.R.R.[.q.T.T.).[.q.[.T.R.T.T.T.T.T.T.q.).T.T.T.T.T.[.T.T.T.T.T.T.T.T.T.R.M.T.U.T.M.^.!.M.T.T.M.R.T.U.",
"T.T.T.T.T.R.R.{.{.{.R.R.{.R.T.T.T.T.T.[.q.4.[.M.T.T.M.T.T.T.T.T.[.5.T.[.q.T.T.q.M.M.U.T.T.T.T.T.U.B.T.M.M.M.M.G.T.M.M.T.M.M.M.M.",
"T.T.T.T.T.T.T.[.R.R.[.[.[.R.T.T.T.T.T.5.[.Y.M.M.5.[.M.[.q.[.T.M.5.[.T.M.T.T.T.M.M.M.M.M.T.M.M.M.M.M.M.M.M.M.M.M.M.M.M.M.M.M.M.M.",
"M.T.M.M.M.T.[.[.[.R.[.).[.T.M.T.M.M.5.).{.aX).M.M.M.M.5.).M.M.M.M.M.M.M.M.M.M.M.M.M.M.M.T.4.5.M.M.M.M.M.M.M.M.M.M.M.5.M.n.5.4.M.",
"M.M.M.M.M.R.[.).T.T.).).[.M.M.M.4.M.M.n.q.q.).M.M.M.M.4.4.5.n.M.M.M.5.M.M.m.q.4.4.M.M.4.m.M.n.n.5.n.M.n.5.M.n.M.n.M.4.m.n.m.n.5.",
"M.M.M.4.M.R.).).T.).).).).M.q.4.M.M.n.n.5.M.4.q.M.m.M.M.M.5.5.M.4.M.M.M.5.M.5.q.5.5.4.q.5.M.n.5.M.5.4.M.m.5.n.n.5.5.5.n.5.5.n.4.",
"4.m.M.M.).).).).).).).[.[.T.M.4.!.E.m.n.n.n.n.n.4.5.M.5.n.n.n.M.q.M.M.M.M.4.4.4.5.M.n.n.M.n.n.n.4.5.4.n.m.n.5.m.n.n.n.n.m.n.5.b.",
"q.M.M.M.).[.).).).).}.|.).4.4.M.!.!.n.U.n.n.n.n.q.4.4.).n.n.m.b.M.q.q.q.4.q.M.5.M.M.m.5.n.4.n.m.n.n.5.n.5.m.b.5.5.5.4.m.m.n.n.3.",
"M.M.M.).[.[.).).[.[.|.[.T.4.q.M.T.n.M.aXU.n.n.n.n.n.5.n.n.n.E.Y.M.Y.Y.T.q.4.M.4.4.5.n.4.E.E.4.n.n.n.n.n.5.m.m.5.m.5.W ,XH.5.5.T.",
").5.M.[.|.'.[.[.).}.|.[.q.M.M.M.n.n.M.!.U.M.M.M.n.M.M.n.b.aXaXaXq.Y.Y.T.4.q.M.q.5.4.5.M.W.E.5.n.5.n.n.4.M.n.3.n.n.Q E ( <Xm.U.W.",
"5.[.R.}.}.}.}.}.}.|.|.R.B.n.h.B.n.n.B.U.n.B.j.T.B.n.n.b.E.sXU.dXgXY.Y.U.M.n.n.n.n.n.n.n.U.n.b.5.m.n.5.W ~ n.n.m.S.<Xm.4.W S.M.W.",
"M.M.R.}./.}.}.}.}.|.|.R.M.M.B.n.n.B.j.B.B.n.n.B.n.h.B.j.aXI.N.gXhXW.Y.U.M.n.n.n.n.b.n.n.3.b.n.n.n.m.Q E ,X/ b.m./ ( 4.b.( / 1.Y.",
"T.B.}.|.}.}.R.|.|.|.}.M.M.B.n.A.n.G.N.n.A.n.n.B.n.A.n.N.~.E.n.~.dXL.Y.T.n.n.n.n.b.n.n.b.n.n.b.n.m.S.,Xv.>.,Xn.1./ ~ m.4.~ ~ 1.3.",
"M.).}.'.A.A.}.'.}.|.A.n.n.n.n.n.n.n.n.n.h.n.n.h.n.n.n.b.~.E.n.G.Q.aXY.U.n.n.b.b.b.b.b.m.5.3.b.5.1.W S.4.1.( T 2.~ / v.1.( ^ 1.3.",
"N.B.}.(.(.`.].].].].N.n.b.n.n.b.b.n.n.b.b.b.n.N.b.b.n.b.G.~.U.U.sXaXq.q.b.b.b.b.b.b.b.b.b.3.b.3.3.Q h.3.1.;.E 1.~ ^ 1.3.A l.3.3.",
"n.`.}.(.fX`.'.'.}.`.n.n.b.b.b.b.b.b.b.b.b.b.b.j.b.b.b.b.b.L.~.aXsXq.q.Y.L.U.b.b.b.b.b.b.3.b.3.3.1.R j.1.3.<.E :.a ! 2.E T 1.3.*.",
"N.`.)./.R.`.`.`.].N.b.b.b.b.b.b.d.b.b.l.h.l.b.l.b.b.b.b.l.n.L.L.Y.q.q.L.!.dXU.l.b.b.l.3.3.3.3.3.1.! R 2.*.1.U ;.L ! q Z 1.<.*.<.",
"`.`.`./.B.`.`.`.`.b.*.l.l.l.<.l.l.l.<.l.l.l.l.l.*.l.*.l.l.*.*.<.5.Y.q.W.b.gXF.,.*.<.<.*.<.<.<.<.*.<.Z U 1.,.;.Z Z L Z -.*.*.<.<.",
"`.A.`.Z.Z.N.N.`.Z.b.<.<.*.<.*.<.*.*.l.*.<.*.*.<.*.<.*.d.<.<.*.3.>.q.q.Q.<.8.Y.&.<.*.*.,.<.*.,.,.,.*.,.C C ,.1.r Y ! Y ,.*.,.1.,.",
"`.Z.`.Z.N.c.V.Z.c.*.*.*.*.d.*.*.*.*.d.*.&.*.*.*.&.*.,.*.&.*.*.<.5.8.8.q.5.q.>.*.&.,.*.*.,.*.*.*.*.*.,.,.C C ,.,.#.U *.@.-.e 7 ,.",
"V.`.`.Z.V.c.V.`.v.*.d.*.*.&.*.*.&.&.&.*.k.*.d.&.*.&.*.=.&.*.*.*.>.q.>.>.K.Y.,.&.&.,.,.=.=.=.,.,.=.,.,.,.#.C r r R e A C c C c e ",
"c.Z.V.c.v.v._.c.k.<.&.&.*.a.&.a.d.&.&.&.&.&.=.,.&.&.&.=.&.&.=.*.>.8.>.*.&.X.&. .&.@.&.,.,. . .,.=.O.,.#.O.=.C C V %.r r =.#.=.V ",
"V.V.V.c.x.v._.x.&.*.&.&.a.*.&.&.=.&.&.&.&.&.&.a.&.&.&.&.X.&.$.*.>.8.>.%. .&. .&.&.=.&.&. .&. .O.9 x m 6 0 m m m V O.#.| =.=.O.e ",
"_.c.v.,.k.V.c.k.&.&.&.&.&.&.=.&.&.&.X.&.X.&.X.&.&.&.&.&.&.&.=.*.>.8.>.*.&.=.&.[ X. . .X.X. . .4 V 6 e V x b  . .=.6 ;  . .=.O.e ",
"x.,.@.X. .x.x.=.X.&.X.&.X.X.&.&.X.X.&.X.&.H.F.X.X.&.X.X.X.$.X.*.>.6.>.&.=.&.&. .X.X.X.X.X.X. .I 6 +.| | | $.b 6  .b x ; |  .| m ",
"@.k.k.k.,.u.k.X.X.X.X.[ X.&.X.X.X.X.X.} %.h.K.X.X.X.X.$.X.X.X.&.>.8.>.%.=.=.&.X.X.X.X.X. .X.| m X. .X.} | b ; m < S ..C [ | [ m ",
"z.k.k.X.x.u.X.X.[ } X.X. .X.X.} X.| X.[ &.;.f.| X.| } X.} |  .$.>.6.;.=.&.=.=.&.| } | } } ..X.I X. .| | P n o.I < I +.D b X.I S ",
"u.z.&.u.x.&.[ X.X.} } X.} } [ [ } [ } } [ $.$.} } [ } | [ [ } $.>.6.;.&.%.*.%.=.} ..} | } | } n X.} X.X.b } X.m | m i.X.m v N X.",
"x.k.a.k.x.X.X.X.X.X.X.} X.X.} X.} } } X.X.} X.&.=.X.| } { ..} =.;.6.;.&.%.:.%. ...} w.X.} X...n D o.t.B D r.P M o.F D +.X.X.X.t.",
"z.z.k.C.x.[ X.$.$.X.X.$.} X.t.t.X.X.} t.X.X.$.p.%.%.} X.X.{ ..%.;.8.;.%.%.-.%.=.X.t.X.X.X.t.w.i.c N v M r.r.G P r.J N r.e.t.t.a.",
"z.s.z.C.z.} i.a.i.i.t.a.e.e.i.t.t.t.X.t.t.i.p.f.p.%.t.X.e.t.e.%.g.D.S.p.f.f.*.i.t.t.X.t.i.t.i.e.i.M P r.t.t.M H r.e.N i.t.e.e.i.",
"$.&.d.C.i.i.a.e.t.t.t.t.y.e.t.i.i.e.e.i.t.i.f.f.f.p.t.t.e.t.t.p.S.D.S.f.f.j.f.i.i.e.e.i.t.t.e.e.e.r.e.t.t.e.M e.e.r.G P r.e.i.d.",
"s.t.k.k.i.t.s.e.t.y.a.t.y.e.e.y.e.y.e.t.t.i.f.g.g.f.i.t.e.t.t.p.H.D.S.f.f.f.f.i.e.e.e.t.t.t.e.e.t.e.e.e.e.e.M e.e.r.D G w.i.i.f.",
"s.C.C.y.y.e.e.t.t.t.t.t.w.y.e.e.e.e.e.e.t.t.d.g.H.f.i.e.t.e.i.p.H.D.H.f.g.g.f.e.e.e.e.e.e.w.e.e.e.e.e.e.e.w.M e.w.r.I P r.a.%.j.",
"s.y.C.s.H e.e.e.e.w.w.e.w.e.e.w.e.w.w.w.w.w.i.g.S.g.i.e.e.e.w.f.D.D.g.g.g.L p.e.e.e.e.e.w.w.e.w.w.w.e.e.w.r.S M w.H B = i.%.-.S.",
"y.C.I.I.K w.w.e.w.p.s.w.w.w.w.w.w.w.w.w.w.w.i.g.S.L p.w.w.w.w.p.^ D.g.f.g.g.p.* w.} } = w.} } w.} } } ] { { * n v v J } %.-.>.7.",
"y./.H.p.fXJ w.w.{ g.I.{ w.w.' w.w.w.$ w.' w.e.K S.;.%.{ * w.w.p.6.^ L f.K -.i.{ * } = } } { { { = } } = * { { { - * { %.0 ;.8.9.",
"y.I.e.i.hXI.' ' } p.f.{ $ ' ' ' w.w.' ' * * w.K S.p -.= * ' { 3 ^ D.L K K -.3 { { } 3 = { { * { = $.= } * * { ] $ ' H 0 ;.6.9.0.",
"d.G.= $.fXD.* * ` 4 p.' ' ' ' ' * { ' ] $ ' { J ;.p q [ ] ' ] 3 p p q -.q -.3 $ $ } $.= ] ] * * = $.3 = ] ] ] * * [ %.;.6.7.0.yX",
"l.D.} ] H L * ' ] ` $ ` ' * * ' * $ ] % $ ' ] %.q q q $.' ' ' %.6./ p ;.q 0 $.$ * 3 = [ ] % $ * 3 4 %.1 = * } * * $.0 p 7.0.yXyX",
"&.D.%.$.%.g.$ ' ` ` * $ $ $ $ * $ $ $ $ $ ` ] 4 q 6.q 2 ] ` ] 4 p / p q 0 -.= $ * 3 = = ] * ' } %.0 4 $.= * = { } 4 6.7.J.0.yXiX",
"[ 6.6.0 / 4 $ $ ` % $ $ $ $ $ $ $ $ ` $ # ` ] 3 q q q 4 * $ $ 4 a ) p q q 0 = ] = 3 3 = ] * * } 4 0 4 $.{ = w.} $.q ^ J.uXiXiXiX",
"[ $.a _ 6.O ` # X ` $ $ $ $ $ $ ` ` $ ` $ $ % 1 0 p q 8 } $ % 4 a ) ! p q 0 = * 3 3 3 = * * { 3 f.K -.} w.= w.* p.^ D.uXiXiXpXiX",
"+ & [ : + ] X ` $ X . $   $   $ X # X # $ X ] 3 0 p q 0 3 $ % 4 k _ / p q K 3 { 3 H = * w.{ = p.L L J = { H H H f./ _ iXiXpXpXiX",
"[ : : + + & X # X X X $ $ $ $ $ X # % % # # % 2 0 p p 9 < ] * 0 ) _ ) a ^ K = = 3 J H * * { = K L K p.{ { w.} i.^ k uXpXpXpXiXiX",
"O + : $.1 + [ O X $ $ $ $ $   $ # # % * % # ] 1 0 p p q 0 = * L _ 5X) ^ ^ g.H 3 J %.H { { { i.K L K H { { w.= J ^ _ 3XiXpXpXiXJ.",
"O & 1 1 1 1 & & # # # # X $ $ X # # % = = % * 4 q p a ;.q 3 = L _ 5X_ / ^ K H 3 %.%.3 { * * H L L K = { w.w.= K k 2X7XpXpXpX3XD.",
"O % [ 1 %.2 2 & - % # # $ $ $ $ # * = - = * * 3 q p ^ p 6.J } L _ 5X_ / ^ K H H %.J H = * = 0 L L < = = * * 4 p _ 7X7XpX7X7XyXk ",
"# % & 1 > 2 %.1 % # # # * # $ # # * = 3 3 = * 4 ;.^ ! ^ p 0 H ^ 5X4X_ ( / L %.J 0 4 3 = = 3 0 ^ L 4 % % * % 6 a +X7X8X8X7XiXl p ",
"% % % 1 1 2 2 4 & - # % # * # # # # = 3 3 3 % 3 ^ a a 7./ q 4 / 4X4X5X) / L 4 K 0 4 3 3 3 4 q a p 3 = % % - q l 6X8X8X8X*X+Xh 6.",
"# % % & = 4 4 0 3 5 % % * % # # # % - - 4 3 - 3 p a a a ! p ;.! 4X4X2X_ a L 0 0 0 4 1 1 2 0 p p 9 1 % % % 1 a +X=XwXwXpX*X+X9.u ",
"# # # % & 1 8 w < 3 & & % % - # # # * < 4 < 3 3 p / k a a s q ) 4X4X3X_ a p 6 0 0 4 $.2 2 9 s p 0 & % % & 6 y XX:XwX8X=X@Xl h u ",
". P 3 X & 1 4 0 8 2 1 = % - % . # # % 3 0 0 2 2 t f z k z k s l 6X6X1X+Xk p 0 0 8 2 =., 9 u a p w % % O & t g =XwXwX=X*XOXl h u ",
"O < & O % 5 2 8 9 9 2 5 + o - # X X O 1 8 7 9 6 p f l z j l l .X9X9X6X.Xl s q 8 9 , , 6.u i i i 2 & O % w y XX:XwXwX8X@X+Xl i 9 ",
". o . O O @ : w , , , > 5 5 + o X X O 1 6 p t 9 s j .X X XoXOX*X0X0X*X&XOXk u q q 9 u i h j z s w 1 & 5 9 g =XqXeX:X%X@X+X@Xk 9 ",
". . . .   @ @ > , u , , > 5 5 + O O O : 9 y y t s g #XXXOX&X&X%X0XwX:X-X$X Xi p u s i h j d j s 8 8 2 w y XX0XtXeX:X*X$XoX*X0.2 ",
"    . .     @ : , , u u , w w 5 @ O % 5 9 f g y y +X$X$X-X-X-X>XqXqX;X:X%XOXk a k h j  XOXoXl h u 9 8 p l %XrXrXeX=X*X@XoXoXu > ",
"o             @ w , u i u t 8 w + O O 1 t f _ f y g *X=X-X-X:XqXtXtX>X;X%X$Xl a l l oXOX#X#XoXz s u u f @XeXrXrXeX:X*X@XoXi 8 > "
};
