/* XPM */
static char *result[] = {
/* columns rows colors chars-per-pixel */
"64 64 255 2 ",
"   c #0E170D",
".  c #19120E",
"X  c #1C1210",
"o  c #230E0C",
"O  c #2B0E0B",
"+  c #360E0B",
"@  c #25120E",
"#  c #2C120E",
"$  c #33130D",
"%  c #3B130D",
"&  c #3C1C0E",
"*  c #2B1412",
"=  c #281614",
"-  c #3C1411",
";  c #371915",
":  c #220F10",
">  c #0A390C",
",  c #163B13",
"<  c #0E2D0E",
"1  c #253A12",
"2  c #353613",
"3  c #2F270F",
"4  c #2B1D21",
"5  c #48150D",
"6  c #55180E",
"7  c #431611",
"8  c #4C1A13",
"9  c #481812",
"0  c #521B14",
"q  c #581A14",
"w  c #530E0E",
"e  c #64170E",
"r  c #7A180D",
"t  c #681712",
"y  c #761612",
"u  c #600E0E",
"i  c #472716",
"p  c #582419",
"a  c #49391C",
"s  c #4A2611",
"d  c #652919",
"f  c #753217",
"g  c #592923",
"h  c #52312B",
"j  c #642C23",
"k  c #673229",
"l  c #6B3832",
"z  c #75382F",
"x  c #164815",
"c  c #1B5A1A",
"v  c #11470E",
"b  c #264B18",
"n  c #295A1B",
"m  c #395619",
"M  c #334816",
"N  c #2C661C",
"B  c #255B23",
"V  c #375822",
"C  c #294D22",
"Z  c #296524",
"A  c #35692A",
"S  c #357628",
"D  c #3A7236",
"F  c #574B1B",
"G  c #475619",
"H  c #6A531B",
"J  c #4A5827",
"K  c #515526",
"L  c #474D26",
"P  c #725034",
"I  c #476426",
"U  c #457838",
"Y  c #5A7537",
"T  c #4F6A2E",
"R  c #647235",
"E  c #7B594B",
"W  c #755550",
"Q  c #477C42",
"!  c #4F7648",
"~  c #786553",
"^  c #6D6462",
"/  c #861A13",
"(  c #9C1E1A",
")  c #83180F",
"_  c #A51E19",
"`  c #98251B",
"'  c #8F321A",
"]  c #AB3519",
"[  c #942F2B",
"{  c #A32726",
"}  c #AE3337",
"|  c #A81B20",
" . c #90531C",
".. c #A64D1E",
"X. c #AC4F1B",
"o. c #964826",
"O. c #9B5728",
"+. c #995834",
"@. c #895936",
"#. c #A55422",
"$. c #AC5C26",
"%. c #AA5826",
"&. c #B45B25",
"*. c #B04E2A",
"=. c #99663A",
"-. c #946C29",
";. c #AC622A",
":. c #A7632B",
">. c #B3652A",
",. c #B86729",
"<. c #A66837",
"1. c #B86B36",
"2. c #A87637",
"3. c #BC7B35",
"4. c #B67837",
"5. c #B2752E",
"6. c #C25731",
"7. c #C56929",
"8. c #C27B34",
"9. c #C37836",
"0. c #D67836",
"q. c #C76B36",
"w. c #813F40",
"e. c #895A4E",
"r. c #AC4F4E",
"t. c #9B6A48",
"y. c #967259",
"u. c #896954",
"i. c #B27944",
"p. c #A47C56",
"a. c #AB724C",
"s. c #AA5E63",
"d. c #97716A",
"f. c #AD7471",
"g. c #CC7648",
"h. c #CD794D",
"j. c #CA5A68",
"k. c #C45D5F",
"l. c #3D8234",
"z. c #478438",
"x. c #508D38",
"c. c #57A13A",
"v. c #61A03E",
"b. c #4D8645",
"n. c #548945",
"m. c #5A944A",
"M. c #5B9155",
"N. c #669859",
"B. c #658B4D",
"V. c #5AA441",
"C. c #6AAE4A",
"Z. c #699467",
"A. c #75A669",
"S. c #BB883C",
"D. c #AE8638",
"F. c #C2843B",
"G. c #C4893E",
"H. c #CA8C3D",
"J. c #C88338",
"K. c #DE8D3F",
"L. c #BA8A47",
"P. c #BD914A",
"I. c #AC8358",
"U. c #B88857",
"Y. c #BE955A",
"T. c #A9864C",
"R. c #B99867",
"E. c #B69878",
"W. c #AA8B6D",
"Q. c #BBA377",
"!. c #8F887A",
"~. c #C48C42",
"^. c #C78B43",
"/. c #D9874B",
"(. c #CB9244",
"). c #C7964A",
"_. c #D39C4C",
"`. c #D29846",
"'. c #C79955",
"]. c #D49E51",
"[. c #DF9959",
"{. c #D78B55",
"}. c #E79B46",
"|. c #E59955",
" X c #E48E4A",
".X c #D7A44E",
"XX c #CCA458",
"oX c #D5A253",
"OX c #D9A554",
"+X c #DCAA55",
"@X c #D4AC5B",
"#X c #DBAC5B",
"$X c #D6A659",
"%X c #DBB45D",
"&X c #D8B259",
"*X c #C9A24F",
"=X c #E8A459",
"-X c #E1B55D",
";X c #E1BA5E",
":X c #C78769",
">X c #CF9571",
",X c #CCA965",
"<X c #D5AD66",
"1X c #DCB463",
"2X c #DEBB63",
"3X c #DCB56B",
"4X c #DCBB6B",
"5X c #D6B369",
"6X c #D9BA74",
"7X c #C7AC78",
"8X c #E3BC64",
"9X c #E3BD6B",
"0X c #E1B664",
"qX c #E5AC6F",
"wX c #DDC37A",
"eX c #DFC06D",
"rX c #E5C26C",
"tX c #E6C46A",
"yX c #E4C372",
"uX c #E6C975",
"iX c #E6CC7B",
"pX c #E8C877",
"aX c #E7D37C",
"sX c #B1938D",
"dX c #BDA490",
"fX c #BBAAAB",
"gX c #9DB899",
"hX c #C49990",
"jX c #C9AA87",
"kX c #C4A596",
"lX c #D4B18C",
"zX c #E4B390",
"xX c #C9B5AA",
"cX c #D4B3AA",
"vX c #CBB9B4",
"bX c #D5BAB5",
"nX c #CDABA5",
"mX c #B0C2B2",
"MX c #E7CF82",
"NX c #E6D483",
"BX c #E9D283",
"VX c #E8D886",
"CX c #E6CC92",
"ZX c #D2C5BC",
"AX c #CEC3BA",
"SX c #E4CCA7",
"DX c #DCC38E",
"FX c #CDBEC1",
"GX c #D8C8C7",
"HX c #DBD2CD",
"JX c #DDD6D7",
"KX c #D2C7CC",
"LX c #E1D4CF",
"PX c #E0E3E2",
"IX c None",
/* pixels */
"IXIXIXIXIXIXIXIXIXIXIXIXIXIXIXIXIXIXIXIXIXIXIXIXIXIXIXIXIXIXIXIXIXIXIXIXIXIXIXIXIXIXIXIXIXIXIXIXIXIXIXIXIXIXIXIXIXIXIXIXIXIXIXIX",
"IXIXIXIXIXIXIXIXIXIXIXIXIXIXIXIXIXIXIXIXIXIXIXIXIXIXIXIXIXIXIXIXIXIXIXIXIXIXIXIXIXIXIXIXIXIXIXIXIXIXIXIXIXIXIXIXIXIXIXIXIXIXIXIX",
"IXIXIXIXIXIXIXIXIXIXIXIXIXIXIXIXIXIXIXIXIXIXIXIXIXy.y.p.p.:XY.R.7X:XY.Y.R.W.IXIXIXIXIXIXIXIXIXIXIXIXIXIXIXIXIXIXIXIXIXIXIXIXIXIX",
"IXIXIXIXIXIXIXIXIXIXIXIXIXIXIXIXIXIXIXIXIXy.e.t.U.U.).OX-X8XyXyX0X8X;X2X5X5X,XY.p.p.IXIXIXIXIXIXIXIXIXIXIXIXIXIXIXIXIXIXIXIXIXIX",
"IXIXIXIXIXIXIXIXIXIXIXIXIXIXIXIXIXIXIXe.+.%.,.^.[.1X8XrXtX2XeXeX;X%X8X8XtX8XrX9X<X'.U.p.IXIXIXIXIXIXIXIXIXIXIXIXIXIXIXIXIXIXIXIX",
"IXIXIXIXIXIXIXIXIXIXIXIXIXIXIXIXIXt.+.>.q.^._.%X0XyXyXeX2X2X%XtXtXtXrXrX8X8X0X9XpX6X1X'.U.IXIXIXIXIXIXIXIXIXIXIXIXIXIXIXIXIXIXIX",
"IXIXIXIXIXIXIXIXIXIXIXIXIXIXIXe.+.*.q.9.$X6X2XeXuXyX2X2X2XeXtXtXyXuXuXrX;X;X%X1X3X3X1X<XoX'.T.IXIXIXIXIXIXIXIXIXIXIXIXIXIXIXIXIX",
"IXIXIXIXIXIXIXIXIXIXIXIXIXIXu.+.#.>.9.).$X3X4XyXyX4X2XrXrXrXyXuXiXaXaXtX8X-X8X8X%X&X1X1X].).S.t.IXIXIXIXIXIXIXIXIXIXIXIXIXIXIXIX",
"IXIXIXIXIXIXIXIXIXIXIXIXIXe.O.#.>.9.J.oX$X1XeX2X2X2X8X0XpXBXVXCXaXNXVXaXtXuXtX2X%X&X#X$X].).~.4.=.IXIXIXIXIXIXIXIXIXIXIXIXIXIXIX",
"IXIXIXIXIXIXIXIXIXIXIXIX+.#.*.$.9.'.`.oX@X2X2X&X%X0X8XpXpXVXVXVXaXVXaXaXuXeXrX2X#X1X@XoX].].).F.4.t.IXIXIXIXIXIXIXIXIXIXIXIXIXIX",
"IXIXIXIXIXIXIXIXIXIXIX@.o.X.#.,.8.G.).+X&X%X2X&X&X&X8XpXpXBXVXVXaXVXaXaXyXrX3X#X<X3X1X$X].).~.~.4.2.t.IXIXIXIXIXIXIXIXIXIXIXIXIX",
"IXIXIXIXIXIXIXIXIXIXu.O.X.#.$.,.S.H.(.oX*X&X2X&X&X%X8X9XpXBXVXCXaXaXaXaXuXyX3X<XqX3X<X,X'.^.~.F.4.5.:.IXIXIXIXIXIXIXIXIXIXIXIXIX",
"IXIXIXIXIXIXIXIXIXIX+.$.#.#.;.5.F.H.(.@X2X.X+X-X%X8XtXtXpXBXBXBXVXVXVXaXaXwX3X$X3X<X$X$X'.^.S.4.5.1.:.@.IXIXIXIXIXIXIXIXIXIXIXIX",
"IXIXIXIXIXIXIXIXIXy.$.1.%.%.>.3.F.H.).)..X.X.X+X;X;XtXtXpXBXBXBXVXVXVXaXaXwXqX1X#X$XoX].`.^.~.3.5.;.>.O.IXIXIXIXIXIXIXIXIXIXIXIX",
"IXIXIXIXIXIXIXIXIX<.&...#.$.>.9.G.(.(.`.*X.X-X-X;XtXtXtXpXBXBXaXVXVXaXaXuXrX1X1X#X$XoX].).~.~.S.5.>.;.%.t.IXIXIXIXIXIXIXIXIXIXIX",
"IXIXIXIXIXIXIXIXd.<.&.&.X.$.,.,.G.H.H.H.`.+X-X;X;X8X8XtXtXtXpXtXaXaXVXaXtXeX%X+X[.$XoX].`.~.F.3.3.>.;.%.#.IXIXIXIXIXIXIXIXIXIXIX",
"IXIXIXIXIXIXIXIXy.>.&.&.&.&.7.5.J.J.H.H.*X&X;X;XtX8X8XtXtXtXpXpXiXBXNXyX8X-XOX].oXoX].].^.S.3.3.5.;.;.$...IXIXIXIXIXIXIXIXIXIXIX",
"IXIXIXIXIXIXIXIXt.>.,.&.,.7.5.7.J.J.H.`..X.X%X;X8X8XtX9XtXtXpXpXBXMXiX9X0X=X.XOX$X].].).H.F.3.9.5.;.;.$.X.t.IXIXIXIXIXIXIXIXIXIX",
"IXIXIXIXIXIXIXIX=.>.,.7.7.,.7.J.J.S.J.H.`._.OX-X;XtX8X9X9XpX9XpXpXpX9X0X%X+X_.].].].`.(.G.F.3.5.5.:.%.#.%.t.IXIXIXIXIXIXIXIXIXIX",
"IXIXIXIXIXIXIXZX<.,.,.,.7.7.7.J.J.J.H.H.`._._._.=X-X8X8X9X9X9XpX9X9X9X1X0X+XoX].].(.G.G.G.J.3.5.;.$.%.#.%.<.IXIXIXIXIXIXIXIXIXIX",
"IXIXIXIXIX! ^ gX-.,.,.,.8.8.J.H.H.H.H.H.`.`._..X+X&X;XrX9X9X0X4X3X0X1X<X%X#X#X+X].(.^.G.F.J.3.>.%.#.#.$.&.;.R D IXIXIXIXIXIXIXIX",
"IXIXIXQ D Z v C F  .#.,.7.7.9.J.H.H.H.K.`.`._..X&X&X;X0X0X-X#X%X1X<X+XOX+X+X+X$XoX]._.`.(.F.,.>.%.#.#.o. .H m c A z.l.IXIXIXIXIX",
"IXIXb.z.m.b.Z c N n M m F H H H -.-.-.-.5.5.S.S.S.H.H.S.L.S.S.S.S.S.(.).*X).H.S.D.D.2.-.-.H H H H F F F m N N S m.m.l.IXIXIXIXIX",
"IXIXz.z.z.z.z.m.z.S c c c S Q U n b n n n I I m G T Y T M m T I m m Y I m T Y J b V U z.D V U U x.U A x.m.N.Z.N.m.n.IXIXIXIXIXIX",
"IXIXN.N.b.b.m.V.l.S c Z b.N.U S c c N l.b.M.b.B D b.m U n Z z.z.l.Z c x v v x x A b.l.M.M.A U b.b.T L I n.n.Z.A.A.IXIXIXIXIXIXIX",
"IXIXIXfXZ.A.N.b.N v B m.x.U A Z c N Z m.b.D A B n.Z.Y U Z b , x , > < , v c B Q b.z.V M 2 8 L I M s s i g h ! IXIXIXIXIXIXIXIXIX",
"IXIXIXZ.b.M.D B v @ V m.V b 1 b c b 2 L T A Z B V a L V 3 0 ;   < < < , B D Q Z.m.V s e t y q q e y r / ` { IXIXIXIXIXIXIXIXIXIX",
"IXIXIXIX! Z.gXsX8 0 p V Z 2 7 s s d y / f j g g 5 w w 6 t y e i 1 C C x D M.b.Q T i t y / ( ( { { ` _ _ _ r.IXIXIXIXIXIXIXIXIXIX",
"IXIXIXIXPXPXJXsX[ ) r 6 s e r r ) / _ } } | | [ t 9 w u y ) y y 6 3 3 3 4 a a i 6 y ) ` | j.j.j.r.{ | _ { f.IXIXIXIXIXIXIXIXIXIX",
"IXIXIXIXfXFXKXfXhXf.r.r.*.[ { { { { } j.j.j.>XhXsXd.e.W w./ y y u w 7 w w u t t r r ) ` [ r.s.s.s.s.f.hXkXbXLXIXIXIXIXIXIXIXIXIX",
"IXIXIXIXIXfXfXFXGXvXvXvXcXnXcXnXcXcXbXbXbXLXFXvXbXbXvXsXf.d.e.E P J J J K K K K K K K T P d.kXbXGXGXGXFXGXHXHXGXIXIXIXIXIXIXIXIX",
"IXIXIXIXIXJXfXsXfXfXfXxXvXvXZXHXLXPXLXPXLXLXGXcXfXsXf.d.^ ^ ^ m.m.V.V.V.C.c.V.V.A.C.V.A ! d.fXbXbXLXJXLXHXZXAXAXvXIXIXIXIXIXIXIX",
"IXIXIXIXIXSX:Xi.r.a.s.W.sXhXdXkXnXxXbXxXnXhXhX:X:Xh.g.=.2 x l.N Z S N N U S A Y N.U n b H 6.g.:X>XhXcXcXcXnXkXhXnXIXIXIXIXIXIXIX",
"IXIXIXIXjXg.7.] r 5 7 q o.6.g./././.{.{. X X|.=X=X=X}.}.T.R N n > v > < v v > < , 1 2 d _ ] &.6.q.g.h.>XhXzXqX{.qXIXIXIXIXIXIXIX",
"IXIXIX{.0.] r + @ . * # % f *.0. X}.}.}.}.=XqX[.=X}.K.K.J.0.@.s .               X X * * % 5 5 p f o.&.g.>XzXcXSXqXzXIXIXIXIXIXIX",
"IXIXIX0.7.} - X ; & % % % + s ' *.h.=X=X}.}.[.[./.0.q.&.O.f & : = @ @ = @ @ # o : + * * $ * # @ @ & % d ' *.g.h.zXSXIXIXIXIXIXIX",
"IXIXIXIXIXd.  = g q 0 j g p $ $ r ..g.qXqXqX>X/.7...f 6 + * ; * - 7 5 q p 0 5 g 8 - 7 9 8 0 8 q j p ; : O - d ..q.k.IXIXIXIXIXIX",
"IXIXIXIXIXIX4 7 k @.j j k z g - # 0 ` *.h.h.q.o.d 6 5 s 8 k q p 0 0 q d d k z d.sXd.h 8 k l l E l j g g # X . h :X6.IXIXIXIXIXIX",
"IXIXIXIXIXIX4 * 7 0 8 5 p j 0 8 $ @ 8 ' ..f 9 9 p p k g k P p j l d k k t j l d.sXW g 5 0 8 k g & % 7 - # X : ^ IXIXIXIXIXIXIXIX",
"IXIXIXIXIXIXIX; O + + + % 9 8 w 7 - O $ + . ; ; 0 8 g i s p 0 7 g 0 g q q 7 - 8 8 8 8 8 - + 7 7 % O o o : * h IXIXIXIXIXIXIXIXIX",
"IXIXIXIXIXIXIX!.l g k i * * O O O - $ X . = - # $ 9 7 % 7 % % & 7 7 % % 9 ; # O o ; 7 $ O o O # = ; h P E P u.IXIXIXIXIXIXIXIXIX",
"IXIXIXIXIXIXIXIXa.a.p.a.y.p.y.E P k h ; i h h i 3 * % - - - 4 3 X o o o : = * : = = i W E E ~ u.y.W.y.a.<.:.a.IXIXIXIXIXIXIXIXIX",
"IXIXIXIXIXIXIXIXi.9.^.8.g.^.'.,X7XlXjXQ.jXzXjXjXdXW.!.E.E.dXjXdXu.E u.E u.~ d.y.E.W.E.lX6X7XY.L.i.i.<.:.$.:.t.IXIXIXIXIXIXIXIXIX",
"IXIXIXIXIXIXIXIX2.9.8.~.G.S.~.~.'.XX@X5X5X,X,X,X,X5XeXwXCXSXSXSXDX6X7X,X6X,X,X,XR.P.P.).P.P.L.D.D.4.4.2.:.O.a.IXIXIXIXIXIXIXIXIX",
"IXIXIXIXIXIXIXIX2.9.9.F.S.F.~.~.P.*XXXXX@X@X&X@X@X&X&X@X5X4X4X5XwXeXeXwX4X4X5XXX'.].'.P.P.P.P.P.L.D.4.4.<.-.IXIXIXIXIXIXIXIXIXIX",
"IXIXIXIXIXIXIXIXIX<.4.4.9.S.~.~.*X*X@X@X@X5X&X&X5X&X&XeXwX6XwXwXwXiXiXiXwX5X5X5X<X5X5XXXY.).P.P.L.2.2.<.:.=.IXIXIXIXIXIXIXIXIXIX",
"IXIXIXIXIXIXIXIXIXIXIXIXp.i.i.L.P.XXXX&X@X%X2X&X%X&X@X4XeXwXwXwXwXMXNXNXwX4X5X4X<X5X6X,X'.P.P.T.2.2.=.=.t.IXIXIXIXIXIXIXIXIXIXIX",
"IXIXIXIXIXIXIXIXIXIXIXIXIXIXIXIXI.T.T.T.P.Y.*X*XXX@X@X@X5X5X4XeXiXMXiXMXwX,X,X,X,XR.R.R.I.Y.I.I.p.IXIXIXIXIXIXIXIXIXIXIXIXIXIXIX",
"IXIXIXIXIXIXIXIXIXIXIXIXIXIXIXIXIXIXIXIXIXdXQ.E.R.R.R.R.R.R.R.Q.7X7X7XjXQ.Q.Q.dXjXxXZXIXIXIXIXIXIXIXIXIXIXIXIXIXIXIXIXIXIXIXIXIX",
"IXIXIXIXIXIXIXIXIXIXIXIXIXIXIXIXIXIXIXIXIXIXIXIXIXIXIXIXIXIXIXIXIXIXIXIXIXIXIXIXIXIXIXIXIXIXIXIXIXIXIXIXIXIXIXIXIXIXIXIXIXIXIXIX",
"IXIXIXIXIXIXIXIXIXIXIXIXIXIXIXIXIXIXIXIXIXIXIXIXIXIXIXIXIXIXIXIXIXIXIXIXIXIXIXIXIXIXIXIXIXIXIXIXIXIXIXIXIXIXIXIXIXIXIXIXIXIXIXIX",
"IXIXIXIXIXIXIXIXIXIXIXIXIXIXIXIXIXIXIXIXIXIXIXIXIXIXIXIXIXIXIXIXIXIXIXIXIXIXIXIXIXIXIXIXIXIXIXIXIXIXIXIXIXIXIXIXIXIXIXIXIXIXIXIX",
"IXIXIXIXIXIXIXIXIXIXIXIXIXIXIXIXIXIXIXIXIXIXIXIXIXIXIXIXIXIXIXIXIXIXIXIXIXIXIXIXIXIXIXIXIXIXIXIXIXIXIXIXIXIXIXIXIXIXIXIXIXIXIXIX",
"IXIXIXIXIXIXIXIXIXIXIXIXIXIXIXIXIXIXIXIXIXIXIXIXIXIXIXIXIXIXIXIXIXIXIXIXIXIXIXIXIXIXIXIXIXIXIXIXIXIXIXIXIXIXIXIXIXIXIXIXIXIXIXIX",
"IXIXIXIXIXIXIXIXIXIXIXIXIXIXIXIXIXIXIXIXIXIXIXIXIXIXIXIXIXIXIXIXIXIXIXIXIXIXIXIXIXIXIXIXIXIXIXIXIXIXIXIXIXIXIXIXIXIXIXIXIXIXIXIX",
"IXIXIXIXIXIXIXIXIXIXIXIXIXIXIXIXIXIXIXIXIXIXIXIXIXIXIXIXIXIXIXIXIXIXIXIXIXIXIXIXIXIXIXIXIXIXIXIXIXIXIXIXIXIXIXIXIXIXIXIXIXIXIXIX",
"IXIXIXIXIXIXIXIXIXIXIXIXIXIXIXIXIXIXIXIXIXIXIXIXIXIXIXIXIXIXIXIXIXIXIXIXIXIXIXIXIXIXIXIXIXIXIXIXIXIXIXIXIXIXIXIXIXIXIXIXIXIXIXIX",
"IXIXIXIXIXIXIXIXIXIXIXIXIXIXIXIXIXIXIXIXIXIXIXIXIXIXIXIXIXIXIXIXIXIXIXIXIXIXIXIXIXIXIXIXIXIXIXIXIXIXIXIXIXIXIXIXIXIXIXIXIXIXIXIX",
"IXIXIXIXIXIXIXIXIXIXIXIXIXIXIXIXIXIXIXIXIXIXIXIXIXIXIXIXIXIXIXIXIXIXIXIXIXIXIXIXIXIXIXIXIXIXIXIXIXIXIXIXIXIXIXIXIXIXIXIXIXIXIXIX",
"IXIXIXIXIXIXIXIXIXIXIXIXIXIXIXIXIXIXIXIXIXIXIXIXIXIXIXIXIXIXIXIXIXIXIXIXIXIXIXIXIXIXIXIXIXIXIXIXIXIXIXIXIXIXIXIXIXIXIXIXIXIXIXIX",
"IXIXIXIXIXIXIXIXIXIXIXIXIXIXIXIXIXIXIXIXIXIXIXIXIXIXIXIXIXIXIXIXIXIXIXIXIXIXIXIXIXIXIXIXIXIXIXIXIXIXIXIXIXIXIXIXIXIXIXIXIXIXIXIX",
"IXIXIXIXIXIXIXIXIXIXIXIXIXIXIXIXIXIXIXIXIXIXIXIXIXIXIXIXIXIXIXIXIXIXIXIXIXIXIXIXIXIXIXIXIXIXIXIXIXIXIXIXIXIXIXIXIXIXIXIXIXIXIXIX",
"IXIXIXIXIXIXIXIXIXIXIXIXIXIXIXIXIXIXIXIXIXIXIXIXIXIXIXIXIXIXIXIXIXIXIXIXIXIXIXIXIXIXIXIXIXIXIXIXIXIXIXIXIXIXIXIXIXIXIXIXIXIXIXIX",
"IXIXIXIXIXIXIXIXIXIXIXIXIXIXIXIXIXIXIXIXIXIXIXIXIXIXIXIXIXIXIXIXIXIXIXIXIXIXIXIXIXIXIXIXIXIXIXIXIXIXIXIXIXIXIXIXIXIXIXIXIXIXIXIX"
};
