/* XPM */
static char *e7e930ed64d1453b9c0ddbb43df0f551GjaFcmCul3mQvGcw[] = {
/* columns rows colors chars-per-pixel */
"64 64 256 2 ",
"   c #7B3320",
".  c #38742C",
"X  c #326419",
"o  c #4B762D",
"O  c #556115",
"+  c #597658",
"@  c #546A56",
"#  c #6B7852",
"$  c #71546F",
"%  c #5A7865",
"&  c #5A7272",
"*  c #677A68",
"=  c #6E7177",
"-  c #66585B",
";  c #343A38",
":  c #972B03",
">  c #A82A00",
",  c #B23709",
"<  c #9B321D",
"1  c #C23D00",
"2  c #B6490C",
"3  c #BB6F14",
"4  c #914B35",
"5  c #956F39",
"6  c #A46228",
"7  c #CD5407",
"8  c #D06F0C",
"9  c #CC742C",
"0  c #E57325",
"q  c #8E5250",
"w  c #8F7352",
"e  c #AB7855",
"r  c #8C6F74",
"t  c #A35541",
"y  c #659D2D",
"u  c #398844",
"i  c #4E924A",
"p  c #6F8B5B",
"a  c #6CAB55",
"s  c #4C9169",
"d  c #718B71",
"f  c #6BB873",
"g  c #53A76A",
"h  c #76C87E",
"j  c #B98C2B",
"k  c #9A9D21",
"l  c #D3922C",
"z  c #CEAB34",
"x  c #E8AF38",
"c  c #D69116",
"v  c #90D02B",
"b  c #968B51",
"n  c #AD8B52",
"m  c #909171",
"M  c #AC8F6D",
"N  c #B9AC74",
"B  c #9AAD5B",
"V  c #CB9453",
"C  c #EAB44C",
"Z  c #D0B46B",
"A  c #D7AB54",
"S  c #91CF49",
"D  c #8ED173",
"F  c #A9E565",
"G  c #F6D254",
"H  c #DDC86B",
"J  c #EAD266",
"K  c #7179B8",
"L  c #69749D",
"P  c #3B75D4",
"I  c #3E7CE1",
"U  c #4779D8",
"Y  c #5175D0",
"T  c #467BE4",
"R  c #517AEA",
"E  c #687FCE",
"W  c #387F9D",
"Q  c #8A748A",
"!  c #8675A9",
"~  c #3B8AB1",
"^  c #72898A",
"/  c #69B78A",
"(  c #5190B2",
")  c #6D90B4",
"_  c #5AA5BA",
"`  c #74ABB3",
"'  c #509A93",
"]  c #77CEAD",
"[  c #77D099",
"{  c #4A83DB",
"}  c #5688DB",
"|  c #5A98D9",
" . c #5687CC",
".. c #6A97C7",
"X. c #6587D4",
"o. c #6D91D1",
"O. c #56A6D4",
"+. c #64A8CC",
"@. c #68A9D9",
"#. c #6BB7D8",
"$. c #75B9D9",
"%. c #6FB2CC",
"&. c #4B87E7",
"*. c #538BEB",
"=. c #5A8BEB",
"-. c #5688E6",
";. c #4A9AEA",
":. c #5393EC",
">. c #5C9CEC",
",. c #5896E6",
"<. c #4D8BF5",
"1. c #548CF2",
"2. c #578AF6",
"3. c #5693F7",
"4. c #4D91F5",
"5. c #6389E4",
"6. c #649BEA",
"7. c #6B96F0",
"8. c #5AA7E6",
"9. c #5BA5F2",
"0. c #49A4E1",
"q. c #64A4E3",
"w. c #64ABE4",
"e. c #67A9EA",
"r. c #6BB4E5",
"t. c #69B6E9",
"y. c #72BDEC",
"u. c #76BAE5",
"i. c #65A7F3",
"p. c #73B4EF",
"a. c #76C5CA",
"s. c #76C8D9",
"d. c #7BD3DA",
"f. c #74CDCD",
"g. c #75ECD8",
"h. c #6FC4E7",
"j. c #75C4E5",
"k. c #7ACCE3",
"l. c #77C7E7",
"z. c #7CC7F3",
"x. c #79D3E8",
"c. c #8F8F8D",
"v. c #A9998D",
"b. c #95AF92",
"n. c #A9BB98",
"m. c #B1AC91",
"M. c #8E9CB3",
"N. c #B199AC",
"B. c #98B8A9",
"V. c #86A6B9",
"C. c #8FB1B1",
"Z. c #A7BAA5",
"A. c #B2B1AE",
"S. c #C7BB9E",
"D. c #93D294",
"F. c #ABC39B",
"G. c #B4C69B",
"H. c #ADD48F",
"J. c #9AE792",
"K. c #A7F397",
"L. c #87D7B1",
"P. c #A9C4A6",
"I. c #B8C9A6",
"U. c #B1CBB3",
"Y. c #98E9B9",
"T. c #95E9AF",
"R. c #A7F5A9",
"E. c #A3EDBC",
"W. c #A5ECB4",
"Q. c #A9F4B7",
"!. c #A7ECAD",
"~. c #C5D6AB",
"^. c #C9D8B6",
"/. c #D5DBB8",
"(. c #CBD0AD",
"). c #D6E4B9",
"_. c #D1E7B3",
"`. c #E7E8BA",
"'. c #E4F3BB",
"]. c #E4EDAC",
"[. c #E4D299",
"{. c #8AB9C7",
"}. c #94B7CC",
"|. c #90B0D0",
" X c #A5AED3",
".X c #A0A8E0",
"XX c #C9B7C9",
"oX c #88C6CB",
"OX c #93DDC8",
"+X c #86C8DB",
"@X c #99C5D5",
"#X c #8CDDDD",
"$X c #87D8D9",
"%X c #96DBD9",
"&X c #91CECA",
"*X c #A8CED7",
"=X c #94E4CC",
"-X c #94EBCB",
";X c #9BECCC",
":X c #99E8C6",
">X c #8DE7D9",
",X c #93E4D4",
"<X c #93E4DB",
"1X c #93EBDB",
"2X c #98EAD6",
"3X c #9BF3DC",
"4X c #9AF2D6",
"5X c #95EDC7",
"6X c #A4EDC4",
"7X c #A3EAC9",
"8X c #A4F2C4",
"9X c #A8F4C8",
"0X c #A5F4D8",
"qX c #A7EBD5",
"wX c #85CAE7",
"eX c #85DBE2",
"rX c #8ADCE3",
"tX c #88D7E7",
"yX c #92DCE3",
"uX c #89D5F3",
"iX c #92D9F2",
"pX c #8FC7F1",
"aX c #ACD4EB",
"sX c #8BE3E3",
"dX c #89E5E4",
"fX c #93EDE3",
"gX c #97E6E5",
"hX c #9AF3E6",
"jX c #99EDF3",
"kX c #A4E6E7",
"lX c #A4F8E7",
"zX c #AEEFF2",
"xX c #D3DBC5",
"cX c #C9D4C7",
"vX c #DCEBC5",
"bX c #D9E8C6",
"nX c #DDECD2",
"mX c #E3EDC8",
"MX c #E7F4CA",
"NX c #F4FEC8",
"BX c #E5EED4",
"VX c #E5F2D2",
"CX c #EAF4D4",
"ZX c #ECF4DC",
"AX c #EAF7DA",
"SX c #F2FBDC",
"DX c #F3FBD6",
"FX c #ECF4E3",
"GX c #EDF7E7",
"HX c #F3FBE4",
"JX c #F5FCEB",
"KX c #F9FFEB",
"LX c #F7FDE3",
"PX c #FAFFF2",
"IX c #F7FCF7",
"UX c #D8DEE0",
/* pixels */
"lX4X4X3X0XkXqX&XqXaX*X*XzX( lXgXhX4XhXhXhXhXlXlXjXhXhXhX3X0XlX0XlX3X3XhXhXlXjXlX0X9XQ.R.R.9X9XqXnX9X9X9XQ.R.9X0X9X9X0X0X9XQ.R.R.",
"4XlX3X4XlXzXaX*XB.*XV.*XC.] %XlXfX4X3XhXhXhXjXhXlXhXhXhX4X4X0X5X4X0X3X3XhXhXjXlX0X9XQ.R.Q.Q.9XqX9X9X9X9XR.R.9X0X9X8XqX0X9XR.R.R.",
"4X3X3X1XkX<X&X@X@X}.}.@XaXkXzXgX4X4X4X4XhXhXhXhXhXfXhX3X4X4X4XT.L.0X4XhXhXfXlXlX0XQ.Q.Q.Q.Q.9X6X_.!.Q.!.R.R.8XqX9X9X0X0X9XQ.Q.R.",
"hX>X<XhX<Xa.oX@X X{.aX}.aXkXyXkX>X>XfX1X3XfXfXhXfX1X4X4X5X4X5XL./ 8X4X4XjXfX3X4X9X8XQ.Q.Q.Q.9XQ.Q.!.Q.Q.R.W.6X7XQ.8X4X9XQ.Q.Q.Q.",
"hX=XhXzX$X+XkXaX|.V. X|.) {.%.gX4X>X>X>XfXfXfXfX1X1X>X5X5X5XY.L.g T.4X1XhX>X4X5X8XQ.8X8X8X8XE.E.E.6X7X6X!.!.W.W.R.R.W.Q.Q.Q.9X9X",
"fX>XlXgXa.&XzX@X}.|.}.V.{.}.` $X>X>X-X1Xg.fXfXfX1X3X4X5X] Y.Y.[ i D.qX>XfXfX-X5XQ.E.8X;X6X8XY.W.E.E.6X6XE.W.W.W.J.K.R.W.Q.Q.7X7X",
">XhXhX#XoXoXoX@XaX|.aX|.aXaX@XoX>X-Xg.1XhXfXfXfXfX4X-X] [ T.R.D.u / 8XL.] 3X-X5XE.8X8X7X7X8XY.W.!.K.!.!.W.E.6XE.Y.R.W.E.6X7XqXqX",
"fXhX<XgXlXa.` aX}.*X*X*X` zX{.+X>X4X4XfXfXfXfX3X>X4X5X[ [ R.R.J.i f Q.] ] 4X-X5X;X;X7X6X8X;X8XQ.K.!.!.Q.6X6X6XE.E.R.W.W.E.qXqXkX",
"1X1X1XfX2XkXkXkX{.zX*X{.{.` ` kX,X>X>X1XfXfXfXdX3X5XY.T.g J.J.K.. a R./ [ 5X5X4X4X;X9X9X8X8X5X8X7X7X7X7X7X6XW.J.R.K.R.R.Q.;XkXkX",
"1X>X<X1X<X<XkXaX}.zXaX&X*X%X%X3X,X>X>X>XfXfXfXfX4X5XT.T.f D K.F . i K.h / 8X4X-X>X2X7X;X8X8X;X;XOX7XOXOXOX7XY.!.R.R.J.R.Y.;X<X2X",
">X1X1X<XfXgXgXkX` {.` ` %XkXkXOX,X>X<XsXdXfXjXhX1X5XT.J.D a K.F . i J.a f Y.-X$XgX<X;X;XE.8X;X;X6XW.Y.E.7X7X6XY.5XY.Y.:X7X,X<X2X",
"1X1X1X1XfX1XgXgXC.` ` &X%X%X<X#X#X>X<XsXdXfXfXfX4X5XT.[ F y F F . o D i h L.] g.<X<X-X-X:X;X4X;X:XY.E.Y.7X=XOXY.=X=X:X:X2X<X<X3X",
"1X>XfXdXfXfXgXgXkXoX&XkXgX,X$X>X$X#XgXyXsXjX>X>X5XT.T.D D v S F X y D . [ f ] >X<X<X,X,X;X:X;X2X2X<X;X=X=X=XY.Y.=XOXY.:X2X2X-X-X",
">X>XdX>XdXdXdXsXiXyXgX#X+X#X$Xd.#XyXrX#XeXsXfX=X5X] J.D D v y F X o a . D.g / 4X<X#XsX<X<X,X:X2XgXrX,X,X,X=XY.W.OXOX=X-X<X,X=X-X",
"sXsXdXg.dXx.dXrXiXrXjX+Xd.dXg.$X#X$Xf.a.s.rXdX>X-XT.D.D S S k S O y . . [ s [ 5X,X>XyXiX<X,X:X-X<X,X=X:X=XOXY.:XyXyX,X<X>X>X5XT.",
"sXsXdXdXdXdXtXrXgXtXtXtXrXdXs.eX#X$X%._ +.eXfX>Xg.Y.D D v v y S y X X i g g g.] ,X<XgXgXgX<X:XY.%X#X=X;X,X:XY.;X<XgX1X4XfX>X>X-X",
"sXsXeXrXsXsX>XeXjXs.tXtX$._ _ $.pXoX_ jXu.p.iX>Xg.] K.S v v y a . X X i u / ' 1X=X#XeX$X<X,XU.W.=X,X,XqX;XOXT.T.:X6X5X;X-X,X<X<X",
"rX#X>X#X#XeXeXeXtXeXiXtX$.s.$.$.uX%.f.iXu.pXiXeXg.g.J.S v v S p . X o i u g [ >X>X#X>XsX>X=XW.U.OX&X%X,X=X=XY.Y.Y.Y.Y.:X-X<XyXrX",
"sXsXrXsX#XsXeXeXrXtXiXs.$.wXwX@.iX_ iXwX#.iXiXd.g.g.T.H.v k S y o X o . . s g.>X$X$XrXsXeX$XE.6XOXOX=X=X=XOX=X,X=XOX=XOX#X<XgXrX",
"rX#XrX#XeXeXsXrXrXsXiX$.%.iXpX%.wX_ uX%.%.uXx.dXeX$X&XE.B k k y O O O . u f.jXdXrX#XrXeX$X#XOX:X6X:X;X2X<X%X#XrX#X>X#X>X#XrXgXiX",
"rXrXtXeXeXeXeXeXeXk.iXs.s.pXpXu.%.$.$.+.wXtXk.x.tX+XyX*XB 6 k k   O 5 y P.kXdXx.tXrX$XwXtXeX$XOX:XY.-X,X$XtXwXuXuXuXiXrXrXtXeXrX",
"eXeX$XeX$XeXeXeXtXs.tXk.$.$.$.$.+.u.$.@.rX$Xx.d.+XiX@XA.n j z k 6 6 6 w cXoXl.z.uXwX+XwXx.g.$XL.L.L.OX&Xd.wXuXuXuXuXuXuXtXwXtXx.",
"d.wXd.$Xd.d.d.k.tXs.tXwX$.#...+.@.$.$.wXf.d.h.h.wX}. Xv.e C x l l 9 6 6 A.}.uXz.j.wX+X+Xx.h.f.f.] L.f.f.s.z.z.z.z.z.z.x.x.k.k.d.",
"d.s.wXs.s.d.s.s.k.s.wXwXl.u.%.@.u.| u.x._ #.x.x.wX|.A.r V x x c 8 0 2 4 r }.z.~ $.+X+XwXx.h.f.f.f.f.$Xf.k.wXz.z.z.z.l.k.k.k.k.l.",
"k.k.s.wXk.s.k.k.s.uXj.+...+.@.@.e.@.( ) _ O.t.z.wX}.M e z G C c 0 7 7 < r M.$. .%.eX+X$.j.j.f.f.s.s.s.l.j.j.j.j.j.s.h.h.f.h.d.h.",
"l.l.j.k.k.l.l.k.l.l.#.#.u.u.@.q.e.@.+.$.u.8.t.l.$.A.b j G x C 8 8 8 1 , q c.@X~ +.wX$.wXj.j.h.s.s.j.j.j.j.j.j.s.s.s.f.s.h.s.x.h.",
"l.l.j.j.h.l.l.l.x.#.@.y.wXp.r.X.p.@.+.wXpXe.p.p.{.c.3 c G G x 8 7 0 1 1 4 r |.~ _ s.l.u.j.j.s.f.u.l.y.y.y.j.s.s.f.a.a.a.s.s.h.h.",
"y.y.l.l.l.h.h.h.z.@.r.z.p.u.e.@.p.w.o.$.p.e.i.p.oXb k c G G c 8 8 8 7 1 < r M.~ +.j.$.u.y.u.s.#.y.p.y.y.y.$.#.s.a.a.#.f.s.h.h.h.",
"y.y.h.y.y.h.h.t.z.O.r.y.r.q.p.e.e.q.o.o.@.e.i.|.C.w z G l G z c 7 7 1 1 4 q L ( +.h.r.y.y.r.s.%.#.t.y.r.y.r.h.$.a.#.a.s.#.h.t.h.",
"t.t.t.t.t.t.t.t.y.O.| O.q.e.e.e.6.@.@.o.o.r.e.$.c.b z G C C G c 9 9 > , 2 q = ( O.h.t.t.p.w.#.%.%.#.#.r.#.r.#.#.#.#.#.#.r.t.t.t.",
"t.t.t.e.t.t.t.t.t.8.O.| q.e.6.e.@.| .X7.@.r.8.%.m n j J J C G c j 9 1 > < 4 - ( +.h.i.i.p.i.#.%.%.+.@.@.r.r.r.w.8.r.t.r.t.t.t.t.",
"t.i.t.t.t.w.w.t.e.t.q.q.p.q.@.e.e.| i.7.@.w.| $.m n H H ].C C x 3 9 7 > < t - |.+.t.9.9.i.e.@.+.+.+.+.#.O.w.w.t.w.w.w.w.e.t.i.i.",
"8.w.8.8.8.8.8.q.w.q.e.e.w.q.| 8.,.6.6.6.6.8.9...r Z N N H J z C 3 9 7 > : 4 = V.#.8.8.9.e.e.@.o.e.q.O.8.O.8.8.#.8.@.q.q.e.e.9.9.",
"9.9.e.i.e.q.i.q.e.q.e.i.e.| 8.,.=.,.q.@.6.9.9.@.e n v.v.B Z H l 3 0 2 > : < r M.+.8.0.8.q.q.7.6.7.i.>.8.0.8.8.8.8.8.q.i.9.9.i.9.",
"9.9.9.9.9.>.i.i.>.6.i.i.i.,.:.| | | @.| ,.>.9...e e N.A.m.N J 9 3 0 2 > : < r ) +.0.0.0.8.O.6.,.6.9.>.8.;.8.>.8.q.6.q.6.e.9.9.9.",
">.8.>.>.>.,.>.7.>.6.>.>.>.,.:.| 5.| | | 7.3.8.) w V N.XX(.M Z l 3 7 2 : : t - c.O.0.0.0.0.,.,.,.>.,.:.:.8.>.;.8.>.6.>.6.>.>.9.9.",
":.,.,.,.*.} } ,.=.,.,.,.:.:.:.,.,.6.| =.3.2.,.' 5 V v.N.M M A x 9 0 , : : t $ ) | 8.;.;.;.;.:.*.,.} ,.,.,.,.,.>.,.5.6.6.,.| ,.,.",
"*.} ,.*.-.U { :.=.*.-.-.*.4.:.,.,.=.*.1.2.*.{ ) n V V m.b N A j 0 0 > > 2 q r L o.:.;.;.;.:.:.-.-.} } ,.,.;.:.3.,.,.-.,.,.,.| ,.",
"1.1.&.1.&.T T 2.1.2.1.<.<.<.4.4.<.*.<.&.1.:.{ ) M V Z Z V H H t 9 0 > > < t Q ! 7.=.1.3.1.=.2.=.-.&.&.1.4.4.<.3.2.2.2.2.3.:.:.;.",
"1.&.1.1.R T T R <.<.1.<.<.4.4.&.&.&.&.<.&.*.| ) w V A z J H Z M V e , > < q Q K 5.5.1.1.2.=.2.=.-.T &.1.3.<.4.3.2.2.2.2.1.3.4.4.",
"T =.*.&.-.&.U T &.*.1.&.&.&.&.&.;.{ P P ;.:.*.X.r N G k G H A.XXv.t < : 4 q L ! X.=.=.*.-.-.=.R -.U P &.3.4.<.<.2.2.R R 3.<.4.&.",
"*.*.*.&.&.U P P *.=.*.:.&.I &.;.;.&.I &.:.*.*.X.r n z G z N XX.XN.t 4 q q - L K 5.-.-.*.=.=.2.2.=.U U &.3.4.<.3.2.<.R P 1.<.4.;.",
"*.&.&.*.=.U P P { { -.&.{ P I ;.T T P T 2.R R E = n z J H v.aX.XM.c.- v.r Q ) X.-.I I &.*.<.<.<.-.U U U *.*.-.*.3.2.T P <.<.4.4.",
"=.*.R =.2.U U } =.-.-.=.{ P { ,.&.R T -.2.R R E Q k z G H.v.UXaX|.! $ N.Q L ) } ,.{ I &.:.1.<.3.=.Y Y -.=.:.-.=.=.-.R U 2.2.2.<.",
"2.2.R 2.R U Y R 5.R 5.5.} P Y -.5.R Y Y 5.} Y K r 5 x G [.N.aXaX.X! $ ! Q L ) K |  .Y } } } { *.Y Y Y E -.} } 5.5.E R U 2.2.7.2.",
"5.5.} } E Y Y E X.X.X.X.E K Y  .X.Y L ( ) ) M.M.v.n x C [.N..X@..X! $ Q q $ c.V.....) ....(  . .E Y E o.........o.o.X.Y 5.R R 2.",
") ..) ) ) ) ) V.V.V.V.V.` ` ` M.V.V.V.C.F.n.Z.A.m.M x C Z N..X7.N.Q q 4 q w v.A.Z.B.B.B.B.C.{.V.V.M.M.B.B.B.B.B.C.M.V.^ ) ) o...",
"}.Z.C.C.U.U.&XA.B.B.P.Z.B.n.B.B.C.A.Z.b.D.D b.A.A.M 9 A Z c..Xo.N.Q q   5 e M n.n.P.P.Z.Z.P.Z.B.P.F.B.F.D.b.b.D.b.b.Z.C.Z.B.C.C.",
"n.Z.n.Z.P.Z.Z.I.F.G.n.F.G.n.Z.Z.A.Z.Z.F.D.G.U.(.A.r 5 w S.N.|.aX XM n b w M v.m.I.G.I.F.P.I.P.I.F.G.P.F.F.n.n.F.n.b.n.n.n.n.Z.B.",
"G.I.I.I.^.U.I.G.G.G.G.G.G.I.A.U.(.A.I.G.I.I.U.cXm.M w m.A.A.M. XQ N.B b b b c.A.~.I.H.H.I.I.b.F.I.I.I.G.G.I.G.F.n.F.n.n.n.n.n.n.",
"F.I.I.I.^.^.U.I.G.I.~.I.I.U.I.(.(.(.I.~.~._.xXxX`.v.# Z n.A.C.V.N.A.M b b S.S.XX(.I.I._._.n.m ).^.~.~.~.~.I.I.I.G.I.G.G.G.F.G.n.",
"~.).^.^.^.xXbXxX~.^.~.~./.^.^.^.(./.~.~._._._.bXxX(.[.`.m.* ^ L = v.~.Z m.[.(.xX/.~.~.vX^.d # I./.).^./.^.^._.^.^.~.(.~.(.~.I.(.",
"~._./.^.xXbXxX^.nXbX/.^.xXbX^.xX(.`./._._._.).).`.`.`.`.v.# & L = * `.].[././.xXbX^._.vXbXb.m ^.vXvXbX).bX)._.).)./._.^.~.~.^.^.",
"~.~.I.^.nXcXZ.c.^.nXnXnXBX/.Z.m m.MX].].'._.'._.[.`.].(.p + d b.c.@ ~.(./.`./.xX^.bXvXbXGXAX_.VXVXMXMXMXMXvXvXvXbX)./.^.^./.).).",
"'.).).nXGXcXc.= ^ cXGXBXBXxXb.@ m MX'.'.'.'.MX'.DXmX/.M p c.s % & + n.NXMX_._.vXbXnXnXbXnXHXmXmXVXVXVXVXVXVXvXVXbXbXvXbXbXvXvXmX",
"'.'.VXSXUXZ.= @ @ (.HXnXnXBX(.# m mXMX'.'.'.NX'.NX`.`.# # * p ^ * d p ).vXMXbXvXvX_.nXnXBXBXmXSXMXVXMXVXVXvXvXvXmXvXvXvXvXmXVXMX",
"`.MXCXSXFXcX= ; ; A.JXJXBXBXFXBXBXCXMXBXDXNXMXNXMXSXm # b.c.+ d @ % + U.CXmX~.MXvXvXVXAXnXFXBXZXmXVXCXMXmXmXmXmXbXVXVXVXMXSXSXCX",
"'.MXDXZXPXIXUXcXcXGXJXFXBXFXJXJXCXZXDXDXDXCXMXNXDXI.d b.U.b.s @ D.b.d U.LXMXMX'.VXnXAXnXAXnXBXBXVXBXmXBXCXCXCXBXVXAXAXAXCXSXSXCX",
"NXMXCXBXFXIXIXIXIXIXJXFXJXJXPXJXHXHXHXJXSXCXMXDXDXm @ * % + * d @ % @ d AXvXNX'.VXVXFXFXFXAXAXBXBXBXmXBXSXHXSXZXSXSXLXSXSXSXSXSX",
"DXDXSXHXFXFXGXFXGXFXJXPXPXIXJXJXKXJXJXJXZXCXNXNX~.d b.C.d @ + i s + d & bXNX'.].VXAXFXGXGXGXHXHXZXBXZXZXHXHXLXFXSXFXSXZXFXHXHXHX",
"MXDXLXKXKXJXHXFXFXLXKXKXJXIXIXIXIXGXGXFXCXCXNXMXm + d & & * d m d s & @ b.SX'.NXMXSXJXIXJXKXKXKXFXHXHXHXHXFXHXHXZXZXZXFXHXHXHXJX",
"NXZXSXSXSXFXFXHXLXKXLXFXJXIXIXIXJXAXFXFXBXSX'.H.o p d % d B.I.H.H.d L & c.DX].].CXSXIXIXJXLXLXHXHXKXKXHXJXHXHXJXGXHXHXHXHXHXHXHX",
"LXLXLXLXZXZXSXSXSXSXZXLXIXIXIXIXGXGXGXGXZXSX~.p p b.` = % d m m p % & & d `.NX].MXBXGXIXPXHXKXKXJXJXJXJXJXKXJXJXJXJXJXPXPXJXHXJX",
"CXSXLXLXHXZXZXCXLXSXLXKXPXIXIXIXGXGXGXGXAXDXG.o B B.b.b.& d # X o s * ^ - m.NX].mXUXGXIXKXKXKXKXJXHXGXJXPXPXPXJXJXJXPXPXPXJXJXPX"
};
