/* XPM */
static char *aff01f8dd9bb4fa28cac366f1d9c2388i7u2j7CKaIlAWY8P[] = {
/* columns rows colors chars-per-pixel */
"55 64 209 2 ",
"   c None",
".  c #010100",
"X  c #0B0600",
"o  c #0C0A01",
"O  c #0B0B0B",
"+  c #140C01",
"@  c #1B0E00",
"#  c #131302",
"$  c #1B1102",
"%  c #1D1C01",
"&  c #171717",
"*  c #081216",
"=  c #231502",
"-  c #2B1702",
";  c #321A01",
":  c #3B1D00",
">  c #361500",
",  c #2D0900",
"<  c #282607",
"1  c #35340B",
"2  c #373604",
"3  c #373719",
"4  c #362304",
"5  c #131F23",
"6  c #272828",
"7  c #3B3B3A",
"8  c #2F3330",
"9  c #51130C",
"0  c #7F1207",
"q  c #4B2403",
"w  c #462B03",
"e  c #572C00",
"r  c #563605",
"t  c #4F3105",
"y  c #653300",
"u  c #7D3D00",
"i  c #43430E",
"p  c #474703",
"a  c #585901",
"s  c #4B4B14",
"d  c #5C5C14",
"f  c #575616",
"g  c #694106",
"h  c #7B4D07",
"j  c #715A18",
"k  c #696B01",
"l  c #757703",
"z  c #676616",
"x  c #737319",
"c  c #7C7C1B",
"v  c #47472E",
"b  c #6B532E",
"n  c #777B31",
"m  c #6F772F",
"M  c #2B6479",
"N  c #346678",
"B  c #2B596A",
"V  c #484848",
"C  c gray34",
"Z  c #5B5B4C",
"A  c #695C47",
"S  c #68645B",
"D  c #63634B",
"F  c #4E5E64",
"G  c #44616B",
"H  c #666666",
"J  c #7A7874",
"K  c #911508",
"L  c #B00D05",
"P  c #832009",
"I  c #DC1E0C",
"U  c #EA0000",
"Y  c #FE0000",
"T  c #F20000",
"R  c #FE230E",
"E  c #EB2E0C",
"W  c #914700",
"Q  c #885508",
"!  c #8E5B0E",
"~  c #9C6109",
"^  c #AB6B0A",
"/  c #A4670A",
"(  c #B16E0A",
")  c #BC750B",
"_  c #B5700A",
"`  c #CB7E0C",
"'  c #C57A0B",
"]  c #D46B0D",
"[  c #7F8301",
"{  c #7F8418",
"}  c #818402",
"|  c #858904",
" . c #888C08",
".. c #8E930B",
"X. c #919100",
"o. c #979A0B",
"O. c #86871B",
"+. c #959818",
"@. c #9EBD0D",
"#. c #9FA10F",
"$. c #A0BE0E",
"%. c #B3B300",
"&. c #A3A613",
"*. c #A7AB16",
"=. c #ADB219",
"-. c #B3B517",
";. c #B6B919",
":. c #A0A000",
">. c #999A24",
",. c #9C9F38",
"<. c #ACAC24",
"1. c #A3A323",
"2. c #ABB426",
"3. c #B3BC2C",
"4. c #B8B927",
"5. c #CF810C",
"6. c #D1820C",
"7. c #F8A61C",
"8. c #A3C00F",
"9. c #AAC612",
"0. c #B3CB16",
"q. c #BBC81A",
"w. c #BBD119",
"e. c #BAC12D",
"r. c #BBC636",
"t. c #C8C800",
"y. c #D6D600",
"u. c #C4C61D",
"i. c #C4D71D",
"p. c #E3E300",
"a. c #ECEC00",
"s. c #FEFE00",
"d. c #F4F400",
"f. c #C4C429",
"g. c #CDCD28",
"h. c #CDD721",
"j. c #D4D42D",
"k. c #DCDD2B",
"l. c #D5D725",
"z. c #C2CC39",
"x. c #C9D43E",
"c. c #F4C927",
"v. c #D8E525",
"b. c #ECEC2E",
"n. c #E2E529",
"m. c #FDE62E",
"M. c #ECF22E",
"N. c #E5E530",
"B. c #EDED32",
"V. c #FEE83D",
"C. c #F3F432",
"Z. c #F6F932",
"A. c #FFFF36",
"S. c #FEF536",
"D. c #F0F52F",
"F. c #A2A542",
"G. c #A8AB52",
"H. c #84817D",
"J. c #93AF70",
"K. c #B2B465",
"L. c #889042",
"P. c #FB9554",
"I. c #F58C4B",
"U. c #FDB74A",
"Y. c #FCAF4D",
"T. c #F69863",
"R. c #BEC07E",
"E. c #BBC84B",
"W. c #C8D64A",
"Q. c #FDD043",
"!. c #D5E34E",
"~. c #DCEC55",
"^. c #DAE953",
"/. c #E3F35B",
"(. c #E0EF57",
"). c #30748E",
"_. c #3C98BA",
"`. c #378FB0",
"'. c #759BA4",
"]. c #6A8A91",
"[. c #838383",
"{. c #8B8B8A",
"}. c #92918D",
"|. c #939393",
" X c #9C9C9C",
".X c #969798",
"XX c #83AEB8",
"oX c #ADADAD",
"OX c #A5A5A4",
"+X c #B8B8B9",
"@X c #98BA8E",
"#X c #F9B292",
"$X c #9ECAB6",
"%X c #C0C281",
"&X c #8CB9C4",
"*X c #A8DFEC",
"=X c #A3D5D2",
"-X c #C4C4C4",
";X c #CBCBCB",
":X c gray83",
">X c gray86",
",X c #EFD3C6",
"<X c #E7E8CF",
"1X c #EBEBEB",
"2X c #E4E4E4",
"3X c #F5F5F5",
"4X c #FFFFFF",
"5X c #F9FAF4",
"6X c #EFF0E0",
/* pixels */
"                                              } [       } } }         }                                       ",
"                [ o.u.&...} } q.B.C.f. .| *.A.A.b.*.o.l.A.A.A.l.;.k.A.A.n.} } u.D.;.                          ",
"              [ z.Z.A.A.A.A.A.A.A.A.A.A.A.A.A.A.A.A.A.A.A.A.A.A.A.A.A.A.A.A.A.A.A.k.                          ",
"              2.^.Z.A.A.A.A.A.A.A.A.A.A.A.A.A.A.A.A.A.A.A.A.A.A.A.A.A.A.A.A.M.A.A.-.                          ",
"            [ /./.-.A.A.n.@.w.A.A.A.A.A.A.A.A.A.A.A.A.A.A.A.A.A.A.A.A.A.A.i.$.8.A.}                           ",
"            1././.W.Z.A.@.@.$.v.A.A.A.A.A.A.B.A.A.A.A.A.A.A.A.A.A.A.A.A.A.w.@.@.A.}                           ",
"        } .././././.-.A.@.@.@.0.A.A.A.A.A.A.d A.A.A.<.A.A.A.A.A.x A.A.A.A.v.@.i.A.|                           ",
"        +./././././.;.A.v.@.@.0.A.A.N.Z.S.O.8 v v O.c A.A.O.A.B.s Z.A.Z.4.A.A.A.A.l.                          ",
"        3./.e.#./.~.k.A.A.i.$.Z.A.A.A.< oX4X4X4X4X4XJ g.A.>.[.3X4X3XOX< A.A.A.A.A.b.                          ",
"      [ !.x.X.X.e.~.v.A.A.A.A.A.A.A.+.1X4X4X4X4X4X4X4X:Xd 3X4X4X4X4X4X4X3 A.A.A.A.*.                          ",
"    } ^./.X.X.X.3./...A.A.A.i.A.A.A.H.4X4X4X3X2X4X4X4X4XH.4X4X+X;X4X4X4X4Xz A.A.A.}                           ",
"    r././.X.X.X.~./.^.n.A.0.@.0.A.<.4X4X4X.X_._.M 4X4X4X5X:XN ).).G 4X4X4X|.A.A.A.}                           ",
"    3././.X.X.e./././.o.A.9.@.v.A.f 4X4X4XM O . M oX4X4X4XC _.. . _.4X4X4X4X4.A.A.[               O.d         ",
"    [ (./././././././.+.A.A.D.A.A.3 4X4X4XB 5 . ).-X4X4X4XC `.* 5 ).4X4X4X4Xc A.A.|             < A.X         ",
"       ./././././././.o.A.A.A.A.S.] I.,X4X:X).`.F 4X4X4X4X{.oXN M -X4X4X4X4Xc A.A.g.      j.i   s 1.  c j.#   ",
"      } /././././././.&.A.A.A.m.c.A.m.m.#X4X4X4X4X4X4X4X>X1X4X4X4X4X4X4X4X1Xg.A.A.l.    < <.A.i 1.Z.B.Z.O.    ",
"        ~./.#.X.(././.&.A.A.A.7.A.j.z C.T.4X4X4X4X4X4X4X6 4X4X4X4X4X4X;Xn B.f.A.A.&.        O.A.k.4.A.        ",
"        ~./.X.X./././.^.B.A.A.S.A.A.x c.,X4X4X4X4X4X4XV 7 4X4X4X4X|.s Z.A.A.S.N.A. .        i A.4.A.A.S.j.2.  ",
"         ./././././././.*.A.A.A.A.A.N.1 f.{.3X4X3X{.z A.A.3 [.D >.A.A.A.A.A.1 A.A.[         . S.A.A.1   < 1.  ",
"          2././././././.3.A.A.A.A.A.A.e z A.B.j.N.A.A.A.A.A.A.A.A.A.A.A.j.d A.A.A.[         z N.# O           ",
"          } /././.4.2./.2.A.A.A.A.A.A.: y i A.A.A.A.A.A.A.A.1.c c x 1 z Z.A.A.A.A.#.      < Z..               ",
"          [ /./.&.X.X.x.1.A.A.A.A.A.A.4 y y - f.A.A.A.A.A.A.A.A.A.A.A.d j.A.A.A.A.N.    # A.#                 ",
"          [ /.(.X.X.X.r.r.A.A.A.A.A.A.f y y y e - 3.A.A.A.A.A.A.A.A.A.O.<.A.A.A.A.B.2 o S.1                   ",
"            z.~.X.X.X././.C.A.A.A.A.A.g.y y y y y y  XZ d O.>.+.d i f.A.A.A.A.A.A.o.<X3 z                     ",
"            } /.2.&.(././.=.A.A.A.A.A.A.q y y y y q 4X4X|.y -X4XoXA.A.A.B.$.0.A.A. .4X;X                      ",
"            [ /./././././.2.A.Z.@.0.A.A.1 , q e y - -X3XH.y -X4X:XB.A.A.8.$.@.Z.A.,.4X2X                      ",
"              ^./././././.r.A.A.@.$.A.A.j.T U L U > y y y y - >.N.A.A.A.@.@.@.Z.A.>.1XO                       ",
"              W.{ }.OXm /.&.A.A.D.Z.A.A.A.q Y Y Y U e y y y ; A.A.A.A.A.i.@.0.A.A.&.                          ",
"            O J 4X4X4X2XW.=.A.A.A.Z.M.A.A.A.9 Y Y Y : y y y y f.A.A.A.A.A.A.A.A.A.g.                          ",
"          -X4X4X4X4X4X4X,.+.A.A.Z.@.@.0.A.A.A.# : - y y y y y d A.A.A.A.v.i.A.A.A. .                          ",
"        O 5 :X4X4X4X4X;XE.W.Z.A.v.@.@.@.A.A.A.A.x : y y y y : B.S.A.A.A.@.@.Z.A.A.[                           ",
"          C = 4X4X4X;Xp r.~.l.A.M.@.@.@.A.A.A.A.A.A.N.j.f.g.A.A.A.Q.A.A.@.@.A.A.C.[                           ",
"        . p.a.{.4X[.{ X.X./.n.A.A.9.@.0.A.A.A.A.Q.V.A.A.S.Y.Q.A.A.P.A.A.A.A.A.A.A.                            ",
"      # s.| . oXS W.z.X.3./.Z.A.A.A.Z.A.A.A.A.A.A.V.P.P.V.A.A.Y.P.A.A.A.A.A.A.A.A.                            ",
"      d.a     k /././././.!.4.A.A.b.g.-.u.C.C.l.*.o.X.;.g.=.}  .F.F.o. . .K.%X,.l                             ",
"    t.y.        a J.@X .J.=X$Xl G.<X5X4X6XK.k R.3XS oXE E P C 4X+XV 4X4X4X4X4X5X.                             ",
"    s.2         . *X*X*X*X*X*X6 4X4X4X4X4X4X4XH 7 5X4X9 L -X4XV >X4X4X4X4X4X4X5X.                             ",
"  o s..         . *X*X*X*X*X*X6 4X4X4X4X4X4X4X4X4X4X4XP R oX4X4X4X4X4X4X4X5X3X1X.                             ",
"  # s..         . &X&X&XXX'.].& }.H.J S A b b b b ! ! I R = Q ! ~ / ( ) ' ' ` ' .                             ",
"  # s..         . W u u u h W ; 6.r r w q ` ` = = @ o R R K . . = 5.g . . . Q ` .                             ",
"    s.<         . W @ @ @ > W : 6.- = $ $ ' 5.t t r - R R K Q ! / 6.( ^ ^ ^ ) ` .                             ",
"    a.p.d.p.    . W W W W W W q 6.6.6.6.6.6.6.6.6.6.6.q K ) ` ` 6.6.6.6.6.6.6.` .                             ",
"  a s.s.s.t.X.  . W W W W W W q 6.6.6.6.6.6.6.6.6.5.6.` ` ` ' ( ^ ~ ! Q g r t 4                               ",
"  a.s.s.s.d.<       . . X o + X $ $ @ + o . . . . . . @ r g Q Q ~ ^ X                                         ",
"  a.s.s.s.s.p.X           . 6.6.6.6.6.6.g             o 6.6.6.6.6.6.^                                         ",
"  a s.s.d.y.l             w 6.6.6.6.6.6.+               5.6.6.^ ^ ~ Q                                         ",
"    < p %                 o ` 6.6.6.6.6.                Q 6.t 2 y.;                                           ",
"                  . . .     . h 5.6.6.'                 X / g $ y.2                                           ",
"                  . . . .     :.o $ w w                         o a.                                          ",
"                . . . J .     s.                                  %.p                                         ",
"              . . . & 1X    k o.                                  o d.                                        ",
"            . . . .   1X    d.%                                     s C                                       ",
"            . . . .    XO % a.                                        |.                                      ",
"            . . 6 .   7 v %.k                                          X[.        . . .                       ",
"              . O       s.s.                                            3X      . X . .                       ",
"                        p %                                             {. X    O . V 4X&                     ",
"                                                                        O 4X    . . -X4X7                     ",
"                                                                          -XOX  . . 3X4X                      ",
"                                                                          6 4XX . X 4XH                       ",
"                                                                            7 . .  XV                         ",
"                                                                            . . . .X                          ",
"                                                                            . . OX5X                          ",
"                                                                            . O 4XC                           ",
"                                                                                                              "
};
