/* XPM */
static char *_a7fcb2c48a54d9d95cd2c3d1c06d37di7V2XhLLidWyOavI[] = {
/* columns rows colors chars-per-pixel */
"64 64 206 2 ",
"   c #273F05",
".  c #283A04",
"X  c #2A4305",
"o  c #2D4906",
"O  c #334506",
"+  c #384706",
"@  c #334C06",
"#  c #394E06",
"$  c #345306",
"%  c #3B5406",
"&  c #365B06",
"*  c #3C5C06",
"=  c #3D5108",
"-  c #3E5D08",
";  c #3D6307",
":  c #3E6907",
">  c #3D6508",
",  c #3F6908",
"<  c #414E07",
"1  c #425307",
"2  c #4A5707",
"3  c #435C06",
"4  c #4B5E06",
"5  c #445608",
"6  c #445D08",
"7  c #4D5D08",
"8  c #446406",
"9  c #4B6407",
"0  c #446B07",
"q  c #4B6C07",
"w  c #446308",
"e  c #4B6508",
"r  c #466C08",
"t  c #4C6C08",
"y  c #516406",
"u  c #536C07",
"i  c #5B6D06",
"p  c #536508",
"a  c #536D08",
"s  c #5A6D08",
"d  c #467007",
"f  c #4C7307",
"g  c #4E7A07",
"h  c #467308",
"j  c #4C7308",
"k  c #4D7909",
"l  c #537407",
"z  c #5B7406",
"x  c #547A07",
"c  c #5B7C07",
"v  c #547408",
"b  c #5C7409",
"n  c #557B09",
"m  c #5B7C09",
"M  c #656F08",
"N  c #637507",
"B  c #637C06",
"V  c #6A7C06",
"C  c #627508",
"Z  c #637C09",
"A  c #6A7D09",
"S  c #727E07",
"D  c #727D08",
"F  c #568207",
"G  c #5D8307",
"H  c #5E8907",
"J  c #558209",
"K  c #5C8309",
"L  c #5D8A09",
"P  c #648407",
"I  c #6B8406",
"U  c #648A07",
"Y  c #6A8B07",
"T  c #638409",
"R  c #6B8409",
"E  c #648B09",
"W  c #6B8B09",
"Q  c #738407",
"!  c #7C8507",
"~  c #738B07",
"^  c #7A8C06",
"/  c #738509",
"(  c #7A8509",
")  c #738C09",
"_  c #7B8C09",
"`  c #659107",
"'  c #6D9307",
"]  c #6D9C07",
"[  c #649209",
"{  c #6C9309",
"}  c #669908",
"|  c #6D9A09",
" . c #739307",
".. c #7C9407",
"X. c #739A07",
"o. c #7B9C06",
"O. c #739309",
"+. c #7B9409",
"@. c #749A09",
"#. c #7B9C0A",
"$. c #73A207",
"%. c #7CA207",
"&. c #74A309",
"*. c #7CA309",
"=. c #7DA909",
"-. c #838C07",
";. c #808409",
":. c #818E09",
">. c #849506",
",. c #8B9506",
"<. c #849B07",
"1. c #8B9C07",
"2. c #829509",
"3. c #8B9509",
"4. c #839C09",
"5. c #8B9C09",
"6. c #949C07",
"7. c #939D09",
"8. c #83A207",
"9. c #8CA307",
"0. c #83AB07",
"q. c #8CAB07",
"w. c #84A309",
"e. c #8BA40A",
"r. c #85AB0A",
"t. c #8CAB0A",
"y. c #93A307",
"u. c #9EA407",
"i. c #93AC06",
"p. c #9BAC07",
"a. c #93A409",
"s. c #99A60A",
"d. c #93AC09",
"f. c #9CAC09",
"g. c #85B207",
"h. c #8DB107",
"j. c #85B109",
"k. c #8DB10A",
"l. c #93B307",
"z. c #9CB307",
"x. c #94BC07",
"c. c #9DB907",
"v. c #94B309",
"b. c #9BB309",
"n. c #95BA09",
"m. c #9CBB09",
"M. c #A0A406",
"N. c #A0AC07",
"B. c #AAAC07",
"V. c #A3A608",
"C. c #A3AD09",
"Z. c #A9AD09",
"A. c #A2B407",
"S. c #A7B506",
"D. c #A9B506",
"F. c #A4BB06",
"G. c #ACBC06",
"H. c #A3B40A",
"J. c #A9B20A",
"K. c #ABB409",
"L. c #A4BC09",
"P. c #ABBD08",
"I. c #ABBC09",
"U. c #B6B807",
"Y. c #B4BD07",
"T. c #BABE07",
"R. c #B2B409",
"E. c #B2B509",
"W. c #B2BB0A",
"Q. c #B0BD08",
"!. c #BFBE08",
"~. c #97C007",
"^. c #9FC207",
"/. c #9AC208",
"(. c #A3C307",
"). c #A7C106",
"_. c #A8C007",
"`. c #AEC607",
"'. c #A5C209",
"]. c #A8C008",
"[. c #ACC409",
"{. c #A9C908",
"}. c #ACCA09",
"|. c #B2C306",
" X c #BDC407",
".X c #B2CA07",
"XX c #B6CA07",
"oX c #BECC06",
"OX c #B3C208",
"+X c #B3C409",
"@X c #BBC409",
"#X c #B2CB08",
"$X c #BCCB08",
"%X c #B5D207",
"&X c #BBD208",
"*X c #C2C507",
"=X c #C2CB07",
"-X c #C2C009",
";X c #C3C40A",
":X c #C3C50B",
">X c #C5CB08",
",X c #C5D205",
"<X c #C4D708",
"1X c #CDD30A",
"2X c #D3D906",
"3X c #D0D608",
/* pixels */
"y.1.P ) B # Q 9.o.z.i.z I c c 9.z o...y N U.R.6.-XB.3.C./ M C.7.6.Z.7.+.Z.;XQ.+Xp.l | ' _.XXq.h._...` *.x. .u & $.x.&.g.x.F J ` ",
"S.p...c l 3 I ^ Y 9.z.V y u l  .9 ..8.9 M M.-X( 3.;._ f.+.b B.V.i ( ! 3.Z.C.J.s.z.x U U 0.|.l.b..Xq.| %.c.' B x L 0.n.g.~.E & h ",
"S.D.z.X.G q V V z ..i.y.i B .. .6 z 4.i 4 S 6.^ A M / e.Y z 6.B.C 7 7 D s.W.K.+.+.8  .G P i.q.*.m.q.U %.0.l.).q.F $.n.n.~.' 0 ; ",
",.1.>.I  .l -.^ ,.>.^ p.z u i.p...c >.9.B 7 V  .+.( V ..+.~ M.3.N e p b ) Y.Q.d.~ 0 P 8.B I 2.x 4.o.0.j.| x.h.l.0.g.n.X.=.X.c h ",
"..6.^ P X.c Q I 7.p.N ^ N z ^ ~ e.4.+.N.f.Q I O.o._ p.4. .Z :.I 9 i Z +.A a._ e.e.f ) _.e.1.C.K Y l ' X.H o.n ' r.}.k.{ | =.$.n ",
"0.Y ' ` P ^ >.N ~ >.V V P ..~ 9 ..a.K.*XC.s.! Q C.>.a.<.@./ / R u Z i C A D u Z I t ) p.I 1.m.W 4.x g x l.x & 0 ] '.m.E j.=.*.Y ",
").U  .Y q ,.6.Q I I ~ B z 1.F.c ~ C.;X!.;XH.:.V 5.f.C.p.r.) R R R _ Z 5 7 p v v z q 3 v 9 P E E ..v x 0 l.8.P 4.$.m.v.E ' ] ' d.",
"%Xi.<.Y z i 6.M ^ ..9.I u ~ t.@.V 2.U.f.C.K.s.2.~ C.C.+XK._ R v A _ A V b p N W p.P 0 ; E R K s...l l l $.i.e.XXm.=.n.*.l F X.F.",
"F.F.9. .P 3 i N A 1...B 4 u q.q.v 3.R.s.f.a.3.5.b _ a.W.K.*X3.# i 5.+.a._ R #.w.t.+.W T b.t.r.|.Q 8 U P n 8 w.$XL.g.k.h.h.| x.^.",
"o.c ' ` Y z >.1.N Q ~ y . z p.q./ 3.3.~ H./ C _ R Z C.K.a.@XW.C N 2.+.e./ Z { e.O.n w T 8.z.v.y.i $ %.c.c * m p.X.g.n.$.j.j.}.^.",
"..c ' F Y <.Y 9.Q B B 2 O z #.4._ 3.2.s.b._ C s A _ a.f.) f.+X! Z 4.( R a E O.#.6 $ 6 t P Y G.W.-.9 %.(.X.] G n 0 $.(.&.} j.%Xr.",
"y.<.Y N Y G.^ I N 1.>.N B z Y B y N A I.H.s.e.<.3.a.J.~ z t.OX_ R e.3.Q a +.v.#.t v T b % 6 <.+XK.l X.(.q.] =.F H $.x.=.} X..X0.",
">.<.<.B ~ p.p.y y D.S.^ z.<.3 3 * V 5.H.J._ W w.+._ L.b 9 @.H.I T a.e.) Z R 4.)  .r.w.Z @ = z e.C.a G %.e.T f j $.&.g.=.| G l.o.",
"Q i.i.I N V |.>.i y.S.Z i.8.* 0 t / s.u.7.t z W W 5 e.e.e.Y N u R / +.f.) / v % W r.b.@.w e +.b 2.~ n T t.R f 8 U r.0.T X.b.K X.",
"B z.q.3 % <.oXA.N :.<.c c I q d r c A v z j 0 W @.% v t.L.+.# Z +.Z @.b.+.2.C n *.{ *.| x P f.+.e.) e m L.~ m x J T +.T t.`._ 4.",
"P <.q.G @ I S.y.u y.<.c l q G K J E l z L r $ n W K v +.d.R 6 b R Z 3.w._ 4.R @.v.=.[ { k x 1.B v 9 X 9 8.<.R ' K 9 x #.}.L.#.a.",
"X.c U P c x P z $ B 8 l c 0 x Y *.{ l +.w.m w n O.W { w.b.a.b / / b 2.) R / A T d.O.t n 0 j Z j x q 9 a t +.t l n z L *.n.'.t.F.",
"F.%.Y ) X.' l x l K f c G 3 0 E r.' a 2.p.' 0 l W t z W I.W./ _ _ e T O.Z ( 5.s O.{ @.@.L n n v v B x G +.4.T a n h.X.v.n.^.0.L.",
"l.q.0.9.<.Q 8 l n U ' *.o.c ; c O.P 2.4.s.+.P l ; w 3 e 3.C.I.a._ 5 R d.W C 5.A b #.j.v.&.L R v b c 9 v +.+.W x J { f w.n.m.L r.",
"P P o.i.^ i q P ' G l  .o.' U W <.R ! 3./ ) ) L t m s # = R Z.C.s a W w.#.A ) +.4.w.L.v.&.b 4.s.^ 6 = Z 5.f.e.) 4. .m Y @.r.z v ",
"$ 9 @.p.N Q N c U T c x T  . .{ v.+.K Z ! B.A t A a./ p p / H.s.= 5 Z ) { W +.+._ W H.n.w.v R s.f.O O ( C.C.L.O.o.v.8.#.Y *.I 3 ",
"0 V u.^ N ,.y.>.9.W  .{ Y c T q e.t.{ T 2.C.5.C A 3.:.C D _ C.7.b A a T m Z R C b s #.'.}.W b Z 2.p 1 A 5.3.2.R ' b.K.+.p T  .m ",
"f ^ !.3.i B y.i.o.W X.m.h.z 6 8 9.[.*.+./ +.s.+.C D s./ p b 2.+.W Z b w.R v n - 6 W R w.[.w.) A Z R s 7 A / C t T t.[.#.t w.n.8.",
"z u 6.1.>.Q _ 8.a 0 c n.n.p.+.R *.n.| @.Z A ^ ~ ) 5.P.w.b R ) #.E T E k.b.) K m t K O.*.m.v.#._ Z R i ~ O.O.Z w n w.b.+.E q.b.v.",
"F.q.<.p.=Xa.Q 3.y 0 x X.+.f.P.O.X.*.K <.:.2.T L n.b.v.r.t +.4.4.m m *.k.n.O.W W R W n E v.@.{ C Z w 6 R T @.X.j m m W e.E +.L.b.",
"F.G.i.N.T.H./ S ^ B  . .A 4.I.f.H.4.T +.A 5.z { x.v.| | t T v.'.#.{ { =.r.#.O.O.O.#.{ R 4.*.K - t v w r m @.[ h E 2.W w.@.b.#X+X",
"o.A.F.A.a.f.M V a.~ +.+.~ _ 4.a.L.f.2.:.Z I L L n.j.E L n W j.k.r.r.j { #.v.#.#.r.w.<X5.R W #.n n L t r t n W v n H.L.O.@.=X2X@X",
"c <.A.G.H.a.b ~ a.e.>.4.A s Z 2.a.2.a.( Z { K h *.k.r.L | w.4.r.'.m.&.O.L t.t.@.T O.[.f.e.W w.b.X.E { +.b - Y x e 4.f.e.Y _.2X3X",
"c l B <.e.+.p b @.+.) 4.c 5 b 4.b.R C s +.E @.E E @.m.| K *.L t.}.v.r.w.*.r.#.L j m t.d.[.L.w.H.H.L.d.2.4.6 m t I e.P s.9.F.=X|.",
"Y 9 l I Q _ 6.C 2.4.^ d.Z Z p.4.( b +.p { n @.e.[ [ r.m n w.E W L.m.L @.{ @.L T m v T n ^.&Xa.4.@.v.b./ V Z Q 5 I e.b ~ <.z.oXF.",
"0.o.I +.( 6.B.-.,.f.b.+X+.5.+XL.2.+.w.K m > n #.E | #.v r X.O.m t.#.[ r.m.@.d.L.w.v n n &.v.#.7.W &.w.) I W _ < e V E W P q.=X9.",
"o.0.9.Q.6.-.7.i N ^ 8.z.I ~ H.P.e.v.#.h j n W @.m e.d.j E T v @.L.m.r.v.[.r.b.#.w.E @.K *.t.+.3.T O.{ #.w.O./ e 1 # z  .e.z.,XU.",
"0.' 4.@X=XR.5.) Z C e ) 6 p +.2.m s.r.j J r.L.#.W W m - @.W v { r.m.}.k.m.r.T m #.*.#.m t.W.s.W 5 t m L #.*.O.m p 5 6 m e.W.1X1X",
"X.' 8.Y.D.>X2.2.s R T ) m R 2.s.+.w.#.E *.k.:Xv.{ O.#.T L L w F L @.t.@.m.#.T v W W @.J s.v.R e w - n @.L L W m A = 6 - E v.L.:X",
"w G  .+.7. Xd.e.) +.+.4.) 2.s e.s.K j v [ r.}.}.t.#.e.#.T T t t > m L #.[.#.#.t v m W T *.t.m b T T e J L L m L w.- 6 - t m O.H.",
"q j B N p.1XH.+.2.O.R R R _ 5 ) w.K { W L | L.t.s.H.e.#.O.+.m n w m m K w.w.H.w.T T m #.w.#.R m W #.5 w k J > J +.m k t w O b +.",
"' l e.y.f.:X_ e e.4.O.#.R 2.T +.v T +.#.J J r.T +.J.s.L.O.T #.w.v O.t.T m #.s.d.W A m ) W e.s.W O.#.- v m O.L k m O.@.@.K = b s ",
" .#.@XP.7.J.T t #.#.e.d.O.4.e.2.a e T w.F = t m m #.t.W.s.m #.t.m W @.O.O.+.s.O.Z Z #.W e t.W.H.T m m m #.L.:X#.T v L { W Z 2.2.",
"l c J.[.C b m K m K #.w.e.R H.e.n n W #.b = m ) m k #.L.w.F @.t.W #.v W #.T w.m a m A W m W s.H.v W T T O.v.}.v.O.n L J m A s.s.",
"T f <.S.t v [ E n 6 T E #.W 4.w.K #.m W L j A 4.w.j #.m.L.W @.#.w.v.W #.W O.W t m e 6 W O.W #.s.A A p @.#.m.L.v.#.v.H.m - a 2.( ",
"q.Y +.d.9 G U f *.@.- k w.t.a E @.m.m v L v b e.k.#.r.L.;Xr.O.#.#.v.t.) W t.#.0 L b v ) #.e.e.) _ A = n O.e.L.t.#.H.:Xr.> - W 7 ",
"d.o.w.q.q %.0.0 &.r., K t.e.- m @.#.W +.Z R s ) e.@.{ v.}.r.m O.w.v.L.O.#.#.O.w m W m W W #.t.m A W t > n e T W E O.L.H.@.t ) 6 ",
"W e.e.P K r.0.8 [ &.L J W O.v n @.@.#.#._ ( a W O.m E t.m.*.T E #.v.v.t.w.#.m v Z s.4.R m #.r.T s W r h k - J T w m t.#.W./ R a ",
"@ P  .v U 0.$.8 k [ [ k t v - w { r.#.W / R t v j - t #.w.Z T #.*.m.t.t.t.r.m L m 2.#.#.m T #.X.e.2.h J L k [ @.- W #.p e.2.2.( ",
"8 $ 9 f H $.' K *.[ L & L { k - h k.*.O.R Z m m m w = t e 6 t W @.#.#.t.v.r.r.H.2.m r.r.O.m O.t.1X#Xn k L *.*.r.m ) +.Z w._ 2.C ",
"P q f f z g g U k.#.k - [ @.E k E m.t.@.O.W v w v v t E b Z e K #.k L #.r.O.#.Q.H.L #.O.W v t W m.}.t = t #.r.r.W e.#.R s s 4.v ",
"X.x U P q & 0 v #.W , > k L L t L k.r.&.t.w.v K v m n w.e.Z 7 m @.t T E r.@.#.m.L.O.#.L W v e 6 { '.@.J v K *.#.m e.+.p s s e.) ",
"K j x P P Y f 9 v w - +.[ L L T L r.J @.v.w.O.L K L T e.s.b s ) w.#.s.b.r.O.#.#.w.W.t.W A a ) 7 n k.v.L v k | W W w.w.Z = t ) m ",
"j L q G w.n.E % P @.b s.' J f v r @.> J k.{ W T K L K d.e.Z Z A H.+X$X1XH.#.L.a.@.b.a.4.u ^ t.+.L r.m.K k T t j 4.L.d.b.s a m 6 ",
"0 n c ` o.t.P $ w.v.' _ W q * q - k [ L &.J s O.K v n T _ W t 7 w.b.F.1X1Xe.L.$X+.8.4._ e T 4.+.v *.t.#.@.+.v > w.L.W.b.v.4.p e ",
"z x c Y P  .8 $ ' v.#.T u b C 9 E =.n.k.@.t s 2.T t v = s Z t o A X.a.1XW.E w.XX_ R R b b T +.e.A k.#.O.@.T n n @.a.2.e.e.+.m e ",
"q.d.m u 8 x 9 9 G 8.O.+.s A C 3 j./.}.}.[.4.Z 5./ m n n t v v = @ a 5.;X+X{ X.J.~ +.~ x  .@.R 2.Z k.m.O.J J @.&.*.e.C W 4.T e - ",
"@.o.<.) v u c x a T 4.V V ~ 1 w &.n.}.}.+XH.4._ ) W W @.O.) p t # b m a.1Xb.{ t.e.m w n T t.T b b K r.@.| L L *.@.A s L #.T v X ",
" . .t.w.2.P K m t t b i / +.e j [ =./.}.}.W.b._ s.4.n m #.m.O.e 5 b.m @.XX1Xb.L.@X+.a n v *. .W b + = J @.L j W @.W { *.r.J n w ",
"R O.+.+.) E T l J u Z c W T 6 j [ | n.m.[.d.+.+.H.) - E #.t.w.t b n.@.W b.3X=XH.W.) v W e T O.[.w.b   j { W n L k &./.j.r.n , J ",
"r Y +.@.T ) b W q a m ) e.j v z t r *.L.'.t.) s R b > m W #.#.R ) +.W t 4.+X@XH.+.4.n K v W Z L.H.e e k ) O.{ L h | j.} =.| k h ",
", z 4.@.Y y.B w.q z B o.o.m K v w w n k.m.e.O.w w s m Z j K O.d.d.O.t 5 v R 2./ O.d.O.{ w.O.v #.].Z | J Y @.L [ J &.j.[ | v.v.{ ",
"& @ Y ' %.t.) w.q a l n T m m z t w J *.k.#.) v m C +.2.m n K b.L.A e t T m t e #.5.T [ r.k.*.r.'.b.| J j K [ k > J | *.@.#.m.[.",
": 8  .E @.~ @.i.V m l e 0 z n E t e n T #.n O.E T Z +.W W W J w.L.Z ) W #.t.) v #.A v K k L r.k.v.'.X.L J 0 n J > & k K 2.O.#.m.",
"q f +.R c T #.d.8.*.X.t v v e J v w - - t j W K Z / m t E *.{ #.e.e O.Z C r.v.E E O.K k k k { { @.o.h | &.[ J [ J h r j +.#.W W ",
"0 f P v q P h.l.Y { 0.b v w w K n v v j r v W t a 2.p t O.@.k.t.v.t 4.2.a *.v.O.W O.K h J j { | 0.E ; L [ &.E n v J v t.4.#.+.> ",
"U U P x 9 v m.d.w H o.t $ w t v m m m L k t n - t W R t { @.t.{ R e #.v.W v.#.E r.{ t > E L [ *.0.' & j K @.K 3 - - n b.L.d.m.[ ",
"n.` l c m T l.W o 8 W w o # v b W E j Z j t v t s m w.W v O.k.m e w O.#.n m.b.t.n.#.j - n *.&.@.@.{ $ # +.H.+.b b t j 4.w.r.r.&.",
"x.o.c G Y O.8.a * f *.T x v T w.r.@.- t n m n K b e #.e.a O.#.= = r L W O.m.#Xb.n.'.m o E #Xm.b.&.$.0 = ~ f.J.A m m K O.O.*.[ n."
};
